<?xml version="1.0" standalone="no"?>
<!DOCTYPE svg PUBLIC "-//W3C//DTD SVG 1.1//EN" "http://www.w3.org/Graphics/SVG/1.1/DTD/svg11.dtd" >
<svg xmlns="http://www.w3.org/2000/svg">
<metadata></metadata>
<defs>
<font id="daxcompact-lightlight" horiz-adv-x="991" >
<font-face units-per-em="2048" ascent="1720" descent="-328" />
<missing-glyph horiz-adv-x="532" />
<glyph unicode="&#xfb01;" horiz-adv-x="1028" d="M82 1171v78h127v191q0 147 65.5 218t182.5 71q10 0 21 -1.5t22 -3.5v-82q-10 2 -19.5 2.5t-23.5 0.5q-66 0 -99.5 -46.5t-33.5 -158.5v-191h176v-78h-176v-1171h-115v1171h-127zM737 1667q0 31 21.5 52.5t52.5 21.5t52.5 -21.5t21.5 -52.5t-21.5 -52.5t-52.5 -21.5 t-52.5 21.5t-21.5 52.5zM754 0v1249h114v-1249h-114z" />
<glyph unicode="&#xfb02;" horiz-adv-x="1028" d="M82 1171v78h127v191q0 147 65.5 218t182.5 71q10 0 21 -1.5t22 -3.5v-82q-10 2 -19.5 2.5t-23.5 0.5q-66 0 -99.5 -46.5t-33.5 -158.5v-191h176v-78h-176v-1171h-115v1171h-127zM754 0v1720h114v-1720h-114z" />
<glyph horiz-adv-x="2048" />
<glyph horiz-adv-x="2048" />
<glyph unicode="&#xd;" horiz-adv-x="532" />
<glyph unicode=" "  horiz-adv-x="532" />
<glyph unicode="&#x09;" horiz-adv-x="532" />
<glyph unicode="&#xa0;" horiz-adv-x="532" />
<glyph unicode="!" horiz-adv-x="532" d="M180 74q0 35 25.5 60.5t60.5 25.5t60.5 -25.5t25.5 -60.5t-25.5 -60.5t-60.5 -25.5t-60.5 25.5t-25.5 60.5zM197 1720h139l-25 -1239h-90z" />
<glyph unicode="&#x22;" horiz-adv-x="786" d="M168 1690q23 43 63 43q41 0 64 -43l-31 -492h-65zM492 1690q23 43 63 43q41 0 63 -43l-30 -492h-66z" />
<glyph unicode="#" horiz-adv-x="1310" d="M127 557v86h217l57 455h-204v86h215l67 536h99l-68 -536h373l67 536h99l-68 -536h203v-86h-213l-58 -455h201v-86h-213l-70 -557h-98l70 557h-373l-70 -557h-98l70 557h-205zM442 643h373l57 455h-372z" />
<glyph unicode="$" horiz-adv-x="950" d="M102 61l50 89q35 -23 105.5 -46.5t145.5 -23.5q78 0 136.5 24.5t96.5 65.5t57.5 97.5t19.5 121.5q0 113 -44 191.5t-110.5 141t-144.5 119t-144.5 124t-110.5 155.5t-44 217q0 160 88 268.5t262 131.5l-12 299h122l-26 -295q98 -2 166.5 -27.5t105.5 -54.5l-49 -80 q-35 25 -97.5 46.5t-133.5 21.5q-82 0 -140.5 -25t-95.5 -68t-54.5 -99t-17.5 -118q0 -111 45.5 -186.5t112 -138t144 -118.5t144 -125t112 -159t45.5 -221q0 -80 -24 -149.5t-69 -123t-112.5 -88t-153.5 -44.5l15 -312h-123l26 308q-86 2 -167 27.5t-126 53.5z" />
<glyph unicode="%" horiz-adv-x="1699" d="M115 1151q0 137 16 246.5t49 185.5t84 117t123 41q70 0 122 -41t85 -117t49 -185.5t16 -246.5t-16 -246.5t-49 -185.5t-85 -117t-122 -41q-72 0 -123 41t-84 117t-49 185.5t-16 246.5zM213 1155q0 -238 39 -375t135 -137q47 0 81 36t54.5 101.5t29.5 160.5t9 214t-9 214 t-29.5 160.5t-54.5 101.5t-81 36q-96 0 -135 -137t-39 -375zM561 10l492 1721l84 -21l-492 -1720zM1040 569q0 137 16.5 247t49.5 185.5t84 116.5t123 41q70 0 122 -41t84.5 -116.5t49 -185.5t16.5 -247t-16.5 -246.5t-49 -185.5t-85 -116.5t-121.5 -40.5q-72 0 -123 40.5 t-84 116.5t-49.5 185.5t-16.5 246.5zM1139 573q0 -238 39 -375t135 -137q47 0 80.5 36t54 101.5t30 160.5t9.5 214t-9.5 214.5t-30 161t-54 101t-80.5 35.5q-96 0 -135 -137t-39 -375z" />
<glyph unicode="&#x26;" horiz-adv-x="1085" d="M111 471q0 111 31.5 196t82.5 147.5t111.5 104.5t120.5 66v4q-47 16 -97.5 46t-92.5 75t-68.5 107.5t-26.5 146.5q0 80 24.5 148.5t71.5 119.5t119 80t164 29q78 0 141.5 -25.5t98.5 -56.5l-43 -80q-23 18 -77.5 42t-119.5 24q-123 0 -191.5 -76t-68.5 -205 q0 -68 19.5 -124t55 -97t85 -63.5t110.5 -22.5t121.5 14t118 36.5t110 51.5t95.5 58l38 -91q-33 -20 -93 -44.5t-107 -39.5v-981q-33 -29 -113 -55t-182 -26q-205 0 -321.5 130t-116.5 361zM229 475q0 -88 21.5 -161.5t62.5 -127t100.5 -83t137.5 -29.5q57 0 107.5 12 t70.5 23v899q-258 -72 -379 -197t-121 -336z" />
<glyph unicode="'" horiz-adv-x="462" d="M168 1690q23 43 63 43q41 0 64 -43l-31 -492h-65z" />
<glyph unicode="(" horiz-adv-x="614" d="M127 768q0 268 85 544.5t251 551.5l82 -41q-143 -244 -215 -517.5t-72 -537.5t71.5 -537.5t215.5 -517.5l-82 -41q-166 274 -251 551t-85 545z" />
<glyph unicode=")" horiz-adv-x="614" d="M70 -287q143 244 214.5 517.5t71.5 537.5t-71.5 537.5t-214.5 517.5l82 41q166 -274 250.5 -551t84.5 -545t-85 -544.5t-250 -551.5z" />
<glyph unicode="*" d="M152 1321l32 129l281 -147l-29 417h119l-29 -417l281 147l33 -129l-285 -82l221 -317l-102 -86l-178 372l-179 -372l-102 86l221 317z" />
<glyph unicode="+" d="M160 770v94h284v361h103v-361h284v-94h-284v-364h-103v364h-284z" />
<glyph unicode="," horiz-adv-x="450" d="M57 -328l115 445q8 16 30.5 29.5t49.5 13.5q29 0 42 -13.5t17 -29.5l-184 -445h-70z" />
<glyph unicode="-" horiz-adv-x="696" d="M143 754v110h410v-110h-410z" />
<glyph unicode="." horiz-adv-x="450" d="M139 74q0 35 25.5 60.5t60.5 25.5t60.5 -25.5t25.5 -60.5t-25.5 -60.5t-60.5 -25.5t-60.5 25.5t-25.5 60.5z" />
<glyph unicode="/" horiz-adv-x="909" d="M78 -238l598 2048l98 -32l-598 -2048z" />
<glyph unicode="0" d="M115 860q0 211 22.5 375t68.5 276.5t118.5 171t171.5 58.5q98 0 170.5 -58.5t118.5 -171t69 -276.5t23 -375t-23 -374.5t-69 -276.5t-118.5 -171t-170.5 -58t-171 58t-119 171t-68.5 276.5t-22.5 374.5zM233 864q0 -184 15.5 -330.5t47.5 -248t81 -155.5t119 -54t119 54 t80.5 155.5t47 248t15.5 330.5t-15.5 330.5t-47 248t-81 156t-118.5 54.5q-70 0 -119 -54.5t-81 -156t-47.5 -247.5t-15.5 -331z" />
<glyph unicode="1" d="M168 1499q53 8 115.5 26.5t121 47.5t104.5 65.5t69 81.5h77v-1720h-116v1524q-33 -16 -78 -32.5t-95.5 -31t-99.5 -25t-88 -14.5z" />
<glyph unicode="2" d="M82 0l493 946q51 98 80 190.5t29 170.5q0 158 -79 245.5t-224 87.5q-76 0 -139.5 -21.5t-98.5 -41.5l-41 82q47 31 125 56.5t166 25.5q195 0 302.5 -118t107.5 -316q0 -86 -36 -191.5t-97 -220.5l-426 -784h600v-111h-762z" />
<glyph unicode="3" d="M98 61l41 91q35 -25 102.5 -48.5t145.5 -23.5q76 0 135.5 31.5t101.5 86t63.5 127t21.5 152.5q0 96 -33 171t-88.5 126t-129 78t-157.5 27v77q82 2 151.5 32t121 82t81 123t29.5 155q0 57 -17.5 110t-52 94t-88 65.5t-125.5 24.5t-138 -21.5t-101 -43.5l-43 82 q20 14 52 28.5t70 26.5t78.5 19.5t81.5 7.5q100 0 175 -33t125.5 -86t76 -122.5t25.5 -145.5q0 -90 -29 -161t-70.5 -122t-91 -84t-90.5 -51v-4q37 -14 89.5 -47t100.5 -87.5t81.5 -133t33.5 -187.5q0 -100 -28.5 -190t-85 -159t-138 -108.5t-188.5 -39.5q-86 0 -166 24.5 t-123 56.5z" />
<glyph unicode="4" d="M115 434v90l542 1196h107v-1198h113v-88h-113v-434h-107v434h-542zM209 522h448v848v61.5t2 55.5q0 29 3 57h-7q-10 -27 -18 -53q-8 -23 -19.5 -52.5t-23.5 -58.5z" />
<glyph unicode="5" d="M119 61l41 91q35 -25 102.5 -48.5t145.5 -23.5q76 0 136 31.5t101 88t62.5 132.5t21.5 164q0 115 -33.5 201.5t-103.5 140t-173.5 71t-244.5 -7.5l45 819h612v-106h-522l-33 -615q127 14 232.5 -11t180.5 -89.5t117 -166t42 -236.5q0 -104 -28.5 -198.5t-84 -165.5 t-135.5 -111.5t-182 -40.5q-94 0 -175 24.5t-124 56.5z" />
<glyph unicode="6" d="M119 606q0 233 58.5 420.5t150.5 331t207.5 239t230.5 144.5l35 -86q-76 -33 -154 -92.5t-147.5 -144.5t-127 -197.5t-91.5 -251.5q37 18 89 28.5t107 10.5q94 0 169 -37t127 -103.5t80 -159.5t28 -208q0 -102 -23.5 -196.5t-71 -166t-118 -114.5t-164.5 -43t-166 47 t-121 131t-73.5 198.5t-24.5 249.5zM238 606q0 -115 17 -212t51 -167.5t83 -110.5t115 -40q68 0 117 35.5t79.5 95t46 135.5t15.5 158q0 94 -17.5 172t-56.5 133t-98.5 86t-140.5 31q-61 0 -106.5 -8.5t-80.5 -24.5q-25 -129 -24 -283z" />
<glyph unicode="7" d="M131 1614v106h770l-149 -452q-53 -160 -105.5 -326t-102.5 -329.5t-94 -319.5t-77 -293h-146l541 1614h-637z" />
<glyph unicode="8" d="M115 401q0 84 25.5 156t67.5 134.5t95 117.5t111 106q-53 47 -101.5 97.5t-86.5 104.5t-60.5 116.5t-22.5 134.5q0 76 25 144.5t70 118.5t110.5 80t147.5 30t147.5 -30t110.5 -80t69.5 -118.5t24.5 -144.5q0 -70 -23.5 -130t-63.5 -114.5t-90 -104.5t-106 -99 q57 -53 113.5 -108.5t100.5 -119t71 -135.5t27 -156q0 -96 -30 -173.5t-82 -133t-122 -85t-147 -29.5q-78 0 -147.5 29.5t-122 85t-82 133t-29.5 173.5zM223 401q0 -68 20.5 -127t57.5 -103t86 -69.5t107 -25.5q57 0 106 25.5t85 69.5t56.5 103t20.5 127q0 70 -22.5 131.5 t-60.5 115.5t-88 103.5t-104 98.5q-51 -47 -99 -96t-85 -104.5t-58.5 -117t-21.5 -131.5zM254 1368q0 -57 19.5 -107.5t52 -97.5t75.5 -91t91 -87q49 45 95 89t80.5 91t55 97.5t20.5 105.5q0 59 -16 111.5t-48 90.5t-78 60.5t-103 22.5t-102.5 -22.5t-77 -60.5t-48 -90.5 t-16.5 -111.5z" />
<glyph unicode="9" d="M111 1221q0 102 23.5 196t70.5 166t117.5 115t164.5 43t166 -47t121 -131t73.5 -199t24.5 -250q0 -233 -58 -420.5t-150.5 -331t-208 -238.5t-230.5 -144l-35 86q76 33 154 92t147.5 144t127 197.5t92.5 252.5q-37 -18 -89.5 -28.5t-107.5 -10.5q-94 0 -169 36.5 t-127 103.5t-79.5 160t-27.5 208zM229 1229q0 -94 17.5 -173t56.5 -135.5t97.5 -88t142.5 -31.5q61 0 106 8t80 25q25 128 25 280q0 115 -17.5 213t-51.5 171t-84 114t-114 41q-68 0 -116.5 -36t-79.5 -95.5t-46.5 -135t-15.5 -157.5z" />
<glyph unicode=":" horiz-adv-x="450" d="M139 74q0 35 25.5 60.5t60.5 25.5t60.5 -25.5t25.5 -60.5t-25.5 -60.5t-60.5 -25.5t-60.5 25.5t-25.5 60.5zM139 709q0 35 25.5 60.5t60.5 25.5t60.5 -25.5t25.5 -60.5t-25.5 -60.5t-60.5 -25.5t-60.5 25.5t-25.5 60.5z" />
<glyph unicode=";" horiz-adv-x="450" d="M57 -328l115 445q8 16 30.5 29.5t49.5 13.5q29 0 42 -13.5t17 -29.5l-184 -445h-70zM139 709q0 35 25.5 60.5t60.5 25.5t60.5 -25.5t25.5 -60.5t-25.5 -60.5t-60.5 -25.5t-60.5 25.5t-25.5 60.5z" />
<glyph unicode="&#x3c;" d="M160 770v94l671 285v-109l-573 -223l573 -223v-109z" />
<glyph unicode="=" d="M160 612v95h671v-95h-671zM160 928v94h671v-94h-671z" />
<glyph unicode="&#x3e;" d="M160 485v109l573 223l-573 223v109l671 -285v-94z" />
<glyph unicode="?" horiz-adv-x="819" d="M94 1659q41 33 109.5 57.5t138.5 24.5q88 0 156.5 -30t113.5 -81t69 -117.5t24 -142.5q0 -147 -78 -262t-197 -186l-12 -441h-90l-13 480q68 35 119 83t84 102t49.5 111.5t16.5 112.5t-15.5 104.5t-46 86t-76 58t-104.5 21.5q-66 0 -122 -21.5t-85 -41.5zM287 74 q0 35 25.5 60.5t60.5 25.5t60.5 -25.5t25.5 -60.5t-25.5 -60.5t-60.5 -25.5t-60.5 25.5t-25.5 60.5z" />
<glyph unicode="@" horiz-adv-x="1761" d="M123 692q0 211 55 401.5t159.5 334t256 228.5t346.5 85q193 0 327 -74t216 -195.5t118.5 -278.5t36.5 -323q0 -195 -43 -336t-119.5 -233t-183 -137t-231.5 -45q-254 0 -385 147.5t-131 448.5q0 129 28.5 233.5t81 179t125 114.5t162.5 40q100 0 160.5 -37t83.5 -67v-957 q61 12 121.5 51t109.5 115t80 193.5t31 289.5q0 145 -29 286.5t-97.5 253.5t-181 180.5t-280.5 68.5q-172 0 -303 -79t-221 -211t-136.5 -308t-46.5 -369q0 -195 45.5 -367.5t140.5 -301.5t241.5 -205t347.5 -76q88 0 165.5 17.5t144 45t121 62.5t91.5 72l47 -72 q-98 -92 -237.5 -153.5t-331.5 -61.5q-229 0 -396.5 83t-276 224t-160.5 330.5t-52 402.5zM655 713q0 -254 95.5 -381t328.5 -127v950q-16 14 -48 28.5t-89 14.5q-72 0 -125 -36t-89 -100.5t-54.5 -153.5t-18.5 -195z" />
<glyph unicode="A" horiz-adv-x="1032" d="M45 0l412 1720h118l412 -1720h-129l-104 473h-484l-104 -473h-121zM291 559h442l-184 832q-8 35 -14.5 70.5t-10.5 64.5q-6 35 -10 65h-4q-4 -31 -10 -65q-4 -29 -10.5 -65t-14.5 -70z" />
<glyph unicode="B" horiz-adv-x="1003" d="M160 61v1598q20 16 52 30.5t71 25.5t81 18.5t82 7.5q109 0 188 -32t130 -90t75.5 -140t24.5 -183q0 -86 -23.5 -154.5t-60.5 -119.5t-82 -85t-86 -50v-4q39 -14 88.5 -45t92.5 -82t71.5 -124t28.5 -173q0 -127 -32 -217t-90 -148.5t-139 -86t-177 -27.5q-86 0 -167 23.5 t-128 57.5zM274 109q25 -10 72 -21.5t109 -11.5q145 0 232 93t87 290q0 180 -97 281.5t-308 101.5h-95v-733zM274 920h91q197 0 288.5 95t91.5 281q0 170 -66.5 262.5t-232.5 92.5q-53 0 -98 -7.5t-74 -23.5v-700z" />
<glyph unicode="C" horiz-adv-x="868" d="M119 860q0 205 28.5 369t86 277.5t144.5 174t204 60.5q72 0 130 -25.5t91 -56.5l-39 -80q-29 25 -79 44t-103 19q-170 0 -254 -203.5t-84 -574.5q0 -369 83 -573.5t253 -204.5q59 0 106 19.5t76 44.5l41 -89q-33 -31 -89.5 -56t-131.5 -25q-117 0 -204 60t-144.5 174 t-86 277.5t-28.5 368.5z" />
<glyph unicode="D" horiz-adv-x="1064" d="M160 61v1598q41 29 112.5 55.5t173.5 26.5q121 0 214.5 -61.5t157 -175t96 -277.5t32.5 -367t-32.5 -366.5t-96 -277.5t-157 -175t-214.5 -61q-98 0 -171.5 25.5t-114.5 55.5zM279 106q20 -10 63 -19t96 -9q193 0 289 200.5t96 581.5q0 395 -101 593t-284 198 q-55 0 -94 -8.5t-65 -20.5v-1516z" />
<glyph unicode="E" horiz-adv-x="827" d="M160 0v1720h549v-90h-430v-704h393v-90h-393v-742h430v-94h-549z" />
<glyph unicode="F" horiz-adv-x="819" d="M160 0v1720h549v-90h-430v-704h393v-90h-393v-836h-119z" />
<glyph unicode="G" horiz-adv-x="1052" d="M119 860q0 428 136 654.5t376 226.5q92 0 157.5 -26.5t94.5 -55.5l-39 -80q-35 27 -92.5 45t-120.5 18q-182 0 -285.5 -195.5t-103.5 -586.5q0 -184 24.5 -328.5t73.5 -245t120.5 -153.5t166.5 -53q61 0 100 8t59 18v730h-231v90h350v-865q-41 -33 -110.5 -57t-176.5 -24 q-242 0 -370.5 229t-128.5 651z" />
<glyph unicode="H" horiz-adv-x="1056" d="M160 0v1720h119v-794h499v794h119v-1720h-119v836h-499v-836h-119z" />
<glyph unicode="I" horiz-adv-x="462" d="M172 0v1720h119v-1720h-119z" />
<glyph unicode="J" horiz-adv-x="475" d="M-45 -254q41 12 82 41t73.5 75t53 108.5t20.5 144.5v1605h119v-1605q0 -104 -31.5 -186.5t-81 -140.5t-112 -93t-123.5 -43v94z" />
<glyph unicode="K" horiz-adv-x="954" d="M168 0v1720h119v-819h4q10 14 18 33q16 33 41 76l408 710h127l-484 -821l500 -899h-139l-412 774q-10 20 -21.5 42t-19.5 40q-10 23 -18 41h-4v-897h-119z" />
<glyph unicode="L" horiz-adv-x="749" d="M168 0v1720h119v-1626h393v-94h-512z" />
<glyph unicode="M" horiz-adv-x="1437" d="M98 0l181 1720h137l268 -1343q8 -39 14.5 -78t10.5 -72q6 -37 8 -73h4q2 37 8 73q4 33 10 72t15 78l268 1343h137l180 -1720h-125l-120 1389q-4 39 -6.5 78.5t-4.5 70.5q-2 37 -2 70h-4q-2 -33 -8 -70q-4 -31 -10 -71t-15 -78l-278 -1389h-102l-279 1389q-8 41 -14 79.5 t-11 69.5q-6 37 -10 70h-4q0 -33 -2 -70q-2 -31 -3 -69.5t-5 -79.5l-121 -1389h-117z" />
<glyph unicode="N" horiz-adv-x="1159" d="M160 0v1720h139l545 -1401q12 -31 22.5 -62.5t18.5 -57.5q8 -31 16 -58h4q-2 29 -2 60q-2 27 -2 59.5v65.5v1394h98v-1720h-129l-553 1417q-12 31 -23 61.5t-20 55.5q-8 29 -16 55h-4q0 -27 2 -57q0 -27 1 -58.5t1 -62.5v-1411h-98z" />
<glyph unicode="O" horiz-adv-x="1093" d="M119 860q0 211 25.5 375t77.5 276.5t133 171t192 58.5t191.5 -58.5t133 -171t78 -276.5t25.5 -375t-25.5 -374.5t-78 -276.5t-133.5 -171t-191 -58q-111 0 -192 58t-133 171t-77.5 276.5t-25.5 374.5zM242 864q0 -184 17 -330.5t54 -248t95.5 -154.5t138.5 -53t138 53 t95 154.5t54.5 248t17.5 330.5t-17.5 329.5t-54.5 247t-95 156t-138 54.5t-138.5 -54.5t-95.5 -156t-54 -246.5t-17 -330z" />
<glyph unicode="P" horiz-adv-x="942" d="M160 0v1659q41 33 118.5 57.5t155.5 24.5q117 0 198 -37t130 -100.5t71.5 -148.5t22.5 -179q0 -100 -27.5 -186t-85 -148.5t-146.5 -98.5t-212 -36q-29 0 -56.5 2t-49.5 6v-815h-119zM279 899q43 -6 106 -6q96 0 162.5 28.5t108.5 80t60.5 122t18.5 152.5q0 84 -14 153.5 t-49 118.5t-92.5 77t-145.5 28q-45 0 -89 -9.5t-66 -21.5v-723z" />
<glyph unicode="Q" horiz-adv-x="1093" d="M119 860q0 211 25.5 375t77.5 276.5t133 171t192 58.5t191.5 -58.5t133 -171t78 -276.5t25.5 -375q0 -326 -60.5 -536.5t-189.5 -294.5l319 -236l-106 -90l-303 287q-23 -6 -44.5 -8t-43.5 -2q-111 0 -192 58t-133 171t-77.5 276.5t-25.5 374.5zM242 864 q0 -184 17 -330.5t54 -248t95.5 -154.5t138.5 -53t138 53t95 154.5t54.5 248t17.5 330.5t-17.5 329.5t-54.5 247t-95 156t-138 54.5t-138.5 -54.5t-95.5 -156t-54 -246.5t-17 -330z" />
<glyph unicode="R" horiz-adv-x="966" d="M160 0v1659q41 33 117.5 57.5t156.5 24.5q111 0 191 -36t131 -99.5t75.5 -149.5t24.5 -186q0 -121 -44 -203t-109.5 -132t-140.5 -74.5t-138 -31.5l469 -829h-139l-400 737q-14 25 -26.5 50.5t-22.5 46.5q-12 23 -22 45h-4v-879h-119zM279 901q25 -6 61 -6 q184 0 289.5 92.5t105.5 282.5q0 86 -16.5 156.5t-52 119.5t-93 77t-139.5 28q-47 0 -89 -9.5t-66 -19.5v-721z" />
<glyph unicode="S" horiz-adv-x="860" d="M90 61l43 89q35 -25 97.5 -45.5t127.5 -20.5q70 0 121 27.5t86 71.5t52.5 101.5t17.5 116.5q0 111 -39 189t-98.5 140.5t-127 119.5t-127 125.5t-98.5 158t-39 216.5q0 92 29 163.5t81 123t123 78t155 26.5q88 0 153.5 -26.5t97.5 -55.5l-43 -80q-29 23 -88 43t-120 20 t-111.5 -22.5t-85.5 -61t-53.5 -93t-18.5 -115.5q0 -111 40 -189t98.5 -140.5t128 -119.5t128 -125.5t98.5 -158t40 -216.5q0 -88 -29 -164.5t-81 -134t-125.5 -90t-164.5 -32.5q-78 0 -152.5 24.5t-115.5 56.5z" />
<glyph unicode="T" horiz-adv-x="831" d="M57 1630v90h717v-90h-299v-1630h-119v1630h-299z" />
<glyph unicode="U" horiz-adv-x="1044" d="M160 369v1351h119v-1351q0 -137 69.5 -212t177.5 -75q109 0 178.5 74.5t69.5 212.5v1351h111v-1351q0 -90 -28 -163t-77 -123t-115.5 -76.5t-142.5 -26.5q-78 0 -143.5 26.5t-114.5 76.5t-76.5 123t-27.5 163z" />
<glyph unicode="V" d="M49 1720h131l289 -1390q6 -31 11 -59.5t9 -51.5q4 -27 9 -49h4q2 23 8 49q4 23 9 51.5t11 59.5l289 1390h123l-391 -1720h-111z" />
<glyph unicode="W" horiz-adv-x="1531" d="M70 1720h131l225 -1386q4 -31 7 -60.5t7 -52.5q4 -27 6 -51h5q0 25 4 51q4 23 7 52.5t9 60.5l242 1386h114l240 -1386q4 -29 8 -58.5t8 -52.5q4 -27 4 -53h5q2 27 6 53q4 23 7 52.5t7 58.5l227 1386h123l-321 -1720h-111l-242 1405q-6 31 -9 61.5t-7 55.5q-4 29 -4 57h-4 q0 -29 -4 -57q-4 -25 -8 -55.5t-9 -61.5l-241 -1405h-111z" />
<glyph unicode="X" horiz-adv-x="954" d="M61 0l345 895l-312 825h129l254 -723h4l258 723h121l-311 -817l344 -903h-133l-283 795h-4l-287 -795h-125z" />
<glyph unicode="Y" horiz-adv-x="917" d="M37 1720h131l293 -841h4l293 841h123l-363 -954v-766h-119v766z" />
<glyph unicode="Z" horiz-adv-x="786" d="M61 0l494 1634h-473v86h623l-492 -1630h496v-90h-648z" />
<glyph unicode="[" horiz-adv-x="614" d="M164 -328v2233h356v-88h-241v-2057h241v-88h-356z" />
<glyph unicode="\" horiz-adv-x="909" d="M135 1778l98 32l598 -2048l-98 -32z" />
<glyph unicode="]" horiz-adv-x="614" d="M94 -240h242v2057h-242v88h357v-2233h-357v88z" />
<glyph unicode="^" d="M164 1118l260 363q33 47 72 47t71 -47l260 -363l-55 -53l-276 342l-277 -342z" />
<glyph unicode="_" d="M-20 -287h1032v-98h-1032v98z" />
<glyph unicode="`" horiz-adv-x="450" d="M41 1669q6 16 21.5 23.5t33.5 7.5q20 0 37 -7t37 -24l137 -276h-63z" />
<glyph unicode="a" horiz-adv-x="868" d="M98 365q0 119 42 202.5t113 140t163 88t190 44.5v88q0 131 -51 189.5t-156 58.5q-78 0 -135 -23t-90 -45l-31 80q37 29 105.5 55.5t154.5 26.5q313 0 314 -338v-871q-43 -33 -118 -57t-159 -24q-90 0 -155.5 33.5t-106.5 89t-60.5 124t-19.5 138.5zM213 365 q0 -59 14.5 -113.5t44 -94.5t73.5 -63.5t104 -23.5q49 0 91 10t66 26v650q-84 -12 -155.5 -39t-125 -72t-83 -113.5t-29.5 -166.5z" />
<glyph unicode="b" horiz-adv-x="921" d="M152 61v1659h114v-499q23 16 70 32.5t106 16.5q92 0 161 -44t115 -126t69.5 -197t23.5 -258q0 -147 -24.5 -270t-74.5 -210t-127 -136t-179 -49q-82 0 -147.5 24.5t-106.5 56.5zM266 102q23 -12 56.5 -21t83.5 -9q76 0 131 43t88.5 118.5t50 181t16.5 230.5t-15 224.5 t-48 169t-82 107.5t-119 38q-45 0 -89 -13.5t-73 -29.5v-1039z" />
<glyph unicode="c" horiz-adv-x="765" d="M111 625q0 315 90 480t268 165q78 0 131 -26.5t80 -55.5l-37 -78q-23 23 -67 44.5t-99 21.5q-125 0 -186.5 -139.5t-61.5 -407.5t63.5 -408.5t184.5 -140.5q55 0 99.5 20.5t66.5 44.5l37 -84q-27 -27 -78 -54t-133 -27q-178 0 -268 164.5t-90 480.5z" />
<glyph unicode="d" horiz-adv-x="921" d="M111 610q0 324 106.5 487t304.5 163q43 0 80 -7.5t53 -15.5v483h115v-1659q-33 -29 -100.5 -55t-163.5 -26q-186 0 -290.5 165.5t-104.5 464.5zM229 618q0 -264 74 -405t211 -141q49 0 87 9t54 19v1055q-16 6 -48 12.5t-70 6.5q-166 0 -237 -140.5t-71 -415.5z" />
<glyph unicode="e" horiz-adv-x="917" d="M111 598q0 180 26.5 308t74.5 209t114.5 118t146.5 37q86 0 148.5 -43t104.5 -120t61.5 -182.5t19.5 -232.5q0 -16 -1 -33.5t-1 -33.5l-578 -72q0 -96 19.5 -182t55.5 -150.5t87 -102.5t117 -38q88 0 145.5 20.5t91.5 46.5l35 -86q-35 -29 -104.5 -55t-167.5 -26 q-88 0 -161 40.5t-125 119.5t-80.5 194t-28.5 264zM225 637l465 57q-6 236 -54 363t-167 127q-113 0 -178.5 -133t-65.5 -414z" />
<glyph unicode="f" horiz-adv-x="593" d="M82 1171v78h127v191q0 147 65.5 218t182.5 71q10 0 21 -1.5t22 -3.5v-82q-10 2 -19.5 2.5t-23.5 0.5q-66 0 -99.5 -46.5t-33.5 -158.5v-191h176v-78h-176v-1171h-115v1171h-127z" />
<glyph unicode="g" horiz-adv-x="921" d="M111 655q0 127 25.5 240t75.5 196t126 131t178 48q80 0 147.5 -25.5t106.5 -56.5v-1098q0 -98 -22.5 -179t-66.5 -138.5t-108.5 -89t-146.5 -31.5q-86 0 -159.5 23.5t-116.5 58.5l43 82q29 -23 91 -44.5t128 -21.5q63 0 109 25.5t76 70.5t44 103.5t14 124.5v63 q-20 -16 -73.5 -33.5t-110.5 -17.5q-84 0 -151.5 42t-113.5 116.5t-70.5 179t-24.5 231.5zM229 655q0 -106 14.5 -194t45 -150.5t79 -97.5t115.5 -35q53 0 101.5 14.5t70.5 30.5v932q-23 12 -60.5 20.5t-78.5 8.5q-74 0 -128 -41t-90 -111.5t-52.5 -168t-16.5 -208.5z" />
<glyph unicode="h" horiz-adv-x="929" d="M152 0v1720h114v-514q33 23 88.5 43.5t114.5 20.5q147 0 228 -81t81 -247v-942h-114v942q0 127 -48.5 184.5t-160.5 57.5q-59 0 -108.5 -20.5t-80.5 -43.5v-1120h-114z" />
<glyph unicode="i" horiz-adv-x="434" d="M143 1667q0 31 21.5 52.5t52.5 21.5t52.5 -21.5t21.5 -52.5t-21.5 -52.5t-52.5 -21.5t-52.5 21.5t-21.5 52.5zM160 0v1249h114v-1249h-114z" />
<glyph unicode="j" horiz-adv-x="446" d="M-4 -250q88 10 132 83t44 226v1190h115v-1190q0 -197 -77 -297t-214 -110v98zM156 1667q0 31 21.5 52.5t51.5 21.5q31 0 52.5 -21.5t21.5 -52.5t-21.5 -52.5t-52.5 -21.5t-52 21.5t-21 52.5z" />
<glyph unicode="k" horiz-adv-x="876" d="M160 0v1720h110v-1061h4q8 12 17 25q8 10 16 23.5t19 29.5l352 512h129l-420 -590l440 -659h-137l-364 571q-10 14 -18.5 29.5t-16.5 28.5q-8 14 -17 26h-4v-655h-110z" />
<glyph unicode="l" horiz-adv-x="434" d="M160 0v1720h114v-1720h-114z" />
<glyph unicode="m" horiz-adv-x="1441" d="M152 0v1188q43 31 115.5 56.5t183.5 25.5q104 0 169.5 -36t102.5 -93q47 57 117.5 93t150.5 36q143 0 221 -84t78 -244v-942h-114v942q0 242 -195 242q-117 0 -203 -109v-1075h-114v954q0 102 -55.5 166t-164.5 64q-66 0 -104.5 -9.5t-73.5 -27.5v-1147h-114z" />
<glyph unicode="n" horiz-adv-x="929" d="M152 0v1188q49 35 125.5 58.5t175.5 23.5q164 0 244.5 -90t80.5 -238v-942h-114v942q0 111 -50.5 176.5t-169.5 65.5q-59 0 -101 -10.5t-77 -26.5v-1147h-114z" />
<glyph unicode="o" horiz-adv-x="917" d="M111 625q0 143 18 262t60 204t107.5 132t162.5 47q94 0 160.5 -47t108.5 -132t60.5 -204t18.5 -262t-18.5 -262t-60.5 -204t-108.5 -132t-160.5 -47q-96 0 -162 47t-108 132t-60 203.5t-18 262.5zM229 629q0 -115 10.5 -215.5t37 -177t70.5 -120.5t112 -44t111.5 44 t70.5 120.5t37 177t10 215.5q0 113 -10 214t-37 177t-71 120t-111 44q-68 0 -112 -44t-70.5 -120t-37 -177.5t-10.5 -213.5z" />
<glyph unicode="p" horiz-adv-x="921" d="M152 -328v1516q33 29 102.5 55.5t161.5 26.5q186 0 290.5 -166t104.5 -465q0 -324 -106.5 -486.5t-305.5 -162.5q-43 0 -79.5 7t-53.5 15v-340h-114zM266 100q16 -6 48 -12t71 -6q164 0 235.5 142.5t71.5 414.5q0 264 -73.5 404.5t-210.5 140.5q-47 0 -86 -9.5t-56 -19.5 v-1055z" />
<glyph unicode="q" horiz-adv-x="921" d="M111 604q0 147 24.5 270t74.5 210t127 136.5t179 49.5q94 0 156.5 -28t97.5 -54v-1516h-115v357q-23 -16 -69.5 -32.5t-106.5 -16.5q-92 0 -161.5 44t-115.5 124.5t-68.5 196.5t-22.5 259zM229 612q0 -125 15.5 -224t47.5 -170t82 -108.5t120 -37.5q45 0 89 13t72 30 v1038q-23 12 -60.5 21.5t-78.5 9.5q-78 0 -132 -42t-88 -118t-50.5 -181.5t-16.5 -230.5z" />
<glyph unicode="r" horiz-adv-x="589" d="M152 0v1188q45 33 126.5 57.5t165.5 24.5q25 0 50.5 -1t46.5 -5l-37 -115q-46 21 -108 21h-14q-71 -2 -116 -25v-1145h-114z" />
<glyph unicode="s" horiz-adv-x="724" d="M82 61l35 84q33 -27 84 -46t112 -19q82 0 140.5 55t58.5 154q0 86 -30.5 142t-77 97t-99.5 77t-99 82t-77 112.5t-31 169.5q0 70 22.5 126t61.5 95t90.5 59.5t110.5 20.5q74 0 130 -26.5t85 -55.5l-35 -78q-27 23 -72 44.5t-104 21.5q-78 0 -128 -55.5t-50 -151.5 q0 -80 30.5 -132.5t78 -92t100.5 -76.5t100 -86.5t78 -118t31 -174.5q0 -70 -24.5 -127.5t-67.5 -97t-99.5 -62t-118.5 -22.5q-72 0 -136 24.5t-99 56.5z" />
<glyph unicode="t" horiz-adv-x="602" d="M82 1171v78h127v303l115 52v-355h176v-78h-176v-919q0 -92 34.5 -130t87.5 -38q12 0 25.5 2t28.5 6v-86q-29 -12 -78 -12q-94 0 -153.5 62.5t-59.5 197.5v917h-127z" />
<glyph unicode="u" horiz-adv-x="929" d="M152 309v940h114v-940q0 -123 56.5 -180t154.5 -57q59 0 111.5 11t75.5 30v1136h114v-1188q-47 -33 -123.5 -57t-177.5 -24q-154 0 -239.5 83.5t-85.5 245.5z" />
<glyph unicode="v" horiz-adv-x="884" d="M70 1249h125l208 -893q8 -39 15.5 -76.5t13.5 -68.5q8 -37 12 -70h5q4 33 12 70q6 31 12 68.5t16 76.5l209 893h117l-326 -1249h-94z" />
<glyph unicode="w" horiz-adv-x="1429" d="M82 1249h123l192 -942q6 -29 10.5 -57.5t8.5 -52.5q4 -29 8 -56h4q2 25 6 54q4 23 8 53.5t13 58.5l213 942h102l211 -942q6 -31 11 -60.5t9 -51.5q4 -27 9 -54h4q2 27 6 54q4 23 8 52t10 60l195 942h115l-297 -1249h-86l-222 944q-6 27 -11 55.5t-9 53.5q-4 29 -6 55h-4 q-4 -27 -8 -55q-4 -25 -8.5 -53.5t-10.5 -55.5l-221 -944h-86z" />
<glyph unicode="x" horiz-adv-x="831" d="M57 0l297 633l-284 616h127l217 -524h4l225 524h119l-285 -600l297 -649h-131l-225 545h-4l-234 -545h-123z" />
<glyph unicode="y" horiz-adv-x="884" d="M70 1249h123l210 -893q10 -39 16.5 -76.5t12.5 -68.5q6 -37 12 -70h5q2 33 10 70q4 31 12 68.5t18 76.5l211 893h115l-412 -1577h-118l116 332z" />
<glyph unicode="z" horiz-adv-x="753" d="M70 0l442 1171h-414v78h566l-437 -1163h441v-86h-598z" />
<glyph unicode="{" horiz-adv-x="696" d="M131 750v94q72 0 97.5 44t25.5 161v557q0 152 81 225.5t226 73.5v-86q-90 0 -141 -51.5t-51 -161.5v-557q0 -68 -11.5 -113t-31 -73.5t-44 -43t-49.5 -20.5v-4q25 -6 49.5 -20.5t44 -43.5t31 -74t11.5 -112v-574q0 -111 51 -162t141 -51v-86q-145 0 -226 74t-81 225v574 q0 117 -25.5 161t-97.5 44z" />
<glyph unicode="|" horiz-adv-x="430" d="M164 -328v2048h102v-2048h-102z" />
<glyph unicode="}" horiz-adv-x="696" d="M135 -242q90 0 141.5 51.5t51.5 161.5v574q0 68 11 112.5t30.5 73.5t44 43t49.5 21v4q-25 6 -49.5 20.5t-44 43t-30.5 73.5t-11 113v557q0 111 -51.5 162t-141.5 51v86q145 0 226 -74t81 -225v-557q0 -117 26 -161t97 -44v-94q-72 0 -97.5 -44t-25.5 -161v-574 q0 -152 -80.5 -225.5t-226.5 -73.5v86z" />
<glyph unicode="~" d="M156 827q23 51 70.5 88t125.5 37q43 0 79 -17t67.5 -37.5t65.5 -38t75 -17.5q47 0 85 24.5t60 61.5l52 -64q-23 -51 -71 -88t-126 -37q-43 0 -79 17.5t-67.5 38t-65.5 38t-75 17.5q-47 0 -85 -24.5t-60 -61.5z" />
<glyph unicode="&#xa1;" horiz-adv-x="532" d="M180 1319q0 35 25.5 60.5t60.5 25.5t60.5 -25.5t25.5 -60.5t-25.5 -60.5t-60.5 -25.5t-60.5 25.5t-25.5 60.5zM197 -328l24 1239h90l25 -1239h-139z" />
<glyph unicode="&#xa2;" horiz-adv-x="880" d="M123 625q0 285 102.5 450.5t274.5 190.5l-23 303h123l-22 -299q74 -4 129 -28.5t84 -53.5l-43 -78q-25 18 -76 42t-115 24q-147 0 -231 -139.5t-84 -407.5t84 -408.5t231 -140.5q66 0 115 20.5t76 44.5l43 -84q-29 -29 -83.5 -53t-129.5 -28l22 -308h-123l23 312 q-172 25 -274.5 190.5t-102.5 450.5z" />
<glyph unicode="&#xa3;" d="M90 0q33 45 70 115.5t68.5 153.5t53 173t21.5 174q0 76 -6 134.5t-16 109.5h-191v94h168q-20 76 -37.5 151t-17.5 177q0 117 30.5 204t87 143.5t135.5 84t175 27.5q100 0 167.5 -26.5t102.5 -55.5l-47 -82q-27 20 -86 44t-137 24q-66 0 -123 -20.5t-98 -64.5t-64.5 -113 t-23.5 -165q0 -106 14 -181t31 -147h362v-94h-342q10 -51 15.5 -109.5t5.5 -134.5q0 -70 -14.5 -143.5t-37 -142t-49 -127t-51.5 -97.5h645v-106h-811z" />
<glyph unicode="&#xa4;" horiz-adv-x="1118" d="M123 240l151 223q-55 66 -87.5 151.5t-32.5 184.5q0 98 30.5 183t85.5 151l-147 217l86 55l137 -205q94 70 213 70t213 -70l137 205l86 -55l-147 -217q55 -66 86 -151t31 -183t-33 -184.5t-88 -151.5l151 -223l-86 -56l-141 209q-94 -66 -209 -65q-115 0 -209 65 l-141 -209zM268 801q0 -80 22.5 -150.5t61.5 -123t92.5 -82t114.5 -29.5t114.5 29.5t92.5 82t61.5 123t22.5 150.5t-22.5 149.5t-61.5 121.5t-92 83t-115 31q-61 0 -114.5 -31t-92.5 -83t-61.5 -121.5t-22.5 -149.5z" />
<glyph unicode="&#xa5;" horiz-adv-x="1064" d="M66 1720h131l338 -870h4l338 870h122l-249 -596l186 15v-99l-215 17l-129 -312l344 17v-98l-344 16v-680h-119v680l-344 -16v98l344 -17l-129 312l-215 -17v99l186 -15z" />
<glyph unicode="&#xa6;" horiz-adv-x="430" d="M164 -328v799h102v-799h-102zM164 942v778h102v-778h-102z" />
<glyph unicode="&#xa7;" horiz-adv-x="1019" d="M119 809q0 74 24.5 136.5t61.5 111.5t79 85t74 54q-41 51 -67.5 108.5t-26.5 127.5t23.5 127t64.5 97t97.5 62.5t121.5 22.5q90 0 150.5 -27.5t89.5 -54.5l-39 -84q-29 23 -77 46.5t-117 23.5q-90 0 -145.5 -57.5t-55.5 -155.5q0 -49 20.5 -93.5t55 -86.5t78.5 -82 t92 -83q51 -47 101 -96t89 -105.5t63.5 -120.5t24.5 -142q0 -70 -24.5 -129.5t-59.5 -107.5t-73.5 -84t-69.5 -54q49 -59 79.5 -127t30.5 -156q0 -70 -27.5 -127t-71.5 -99t-101.5 -64.5t-114.5 -22.5q-78 0 -150.5 25.5t-113.5 56.5l43 90q33 -25 90 -47.5t121 -22.5 q39 0 75.5 14.5t65.5 42t47.5 66.5t18.5 88q0 63 -21.5 115.5t-58.5 99.5t-84 89t-96 85q-53 45 -104.5 92.5t-92.5 101.5t-65.5 117.5t-24.5 143.5zM227 819q0 -88 38 -155.5t96.5 -127t127 -113.5t129.5 -116q27 18 57 49t56.5 70t44 86t17.5 100q0 88 -38 159 t-94.5 133.5t-124 118.5t-124.5 116q-29 -16 -62 -47t-60.5 -72t-45 -92t-17.5 -109z" />
<glyph unicode="&#xa8;" horiz-adv-x="450" d="M16 1470q0 29 20.5 49.5t49.5 20.5t49.5 -20.5t20.5 -49.5t-20.5 -49t-49.5 -20t-49.5 20.5t-20.5 48.5zM295 1470q0 29 20.5 49.5t49.5 20.5t49 -20.5t20 -49.5t-20.5 -49t-48.5 -20q-29 0 -49.5 20.5t-20.5 48.5z" />
<glyph unicode="&#xa9;" horiz-adv-x="1638" d="M123 860q0 186 45 347t134 280t218 186.5t299 67.5q168 0 298 -67.5t219 -186.5t134.5 -280t45.5 -347t-45.5 -347t-134.5 -279.5t-219 -186t-298 -67.5q-170 0 -299 67.5t-218 186t-134 279.5t-45 347zM229 862q0 -166 38 -311t112 -253t184.5 -170t255.5 -62t256 62 t184.5 170t111.5 253t38 311t-38 311.5t-111.5 253t-184 170t-256.5 62.5q-145 0 -255.5 -62.5t-184.5 -170t-112 -253t-38 -311.5zM500 872q0 256 92 386.5t256 130.5q72 0 119 -21.5t73 -44.5l-32 -61q-23 16 -65 33.5t-95 17.5q-117 0 -183.5 -113t-66.5 -326 q0 -215 67.5 -326.5t182.5 -111.5q53 0 95 17.5t65 35.5l32 -67q-25 -23 -72.5 -44.5t-119.5 -21.5q-164 0 -256 130t-92 386z" />
<glyph unicode="&#xaa;" horiz-adv-x="860" d="M115 1016q0 94 42 161.5t110.5 112.5t156.5 70.5t180 36.5v69q0 104 -48 150.5t-146 46.5q-72 0 -132.5 -18.5t-91.5 -34.5l-28 65q35 23 105.5 44.5t150.5 21.5q295 0 295 -271v-696q-41 -27 -112 -46t-148 -19q-86 0 -148.5 26.5t-103.5 70.5t-61.5 99.5t-20.5 110.5z M223 1016q0 -47 15.5 -90t46 -75t73.5 -50.5t99 -18.5q47 0 86 9.5t61 21.5v514q-80 -10 -148.5 -30.5t-120.5 -56.5t-82 -90t-30 -134z" />
<glyph unicode="&#xab;" horiz-adv-x="921" d="M152 778l213 451l65 -29l-164 -422l164 -422l-65 -28zM492 778l213 451l65 -29l-164 -422l164 -422l-65 -28z" />
<glyph unicode="&#xac;" d="M160 770v94h671v-458h-102v364h-569z" />
<glyph unicode="&#xad;" horiz-adv-x="696" d="M143 754v110h410v-110h-410z" />
<glyph unicode="&#xae;" horiz-adv-x="1638" d="M123 860q0 186 45 347t134 280t218 186.5t299 67.5q168 0 298 -67.5t219 -186.5t134.5 -280t45.5 -347t-45.5 -347t-134.5 -279.5t-219 -186t-298 -67.5q-170 0 -299 67.5t-218 186t-134 279.5t-45 347zM229 862q0 -166 38 -311t112 -253t184.5 -170t255.5 -62t256 62 t184.5 170t111.5 253t38 311t-38 311.5t-111.5 253t-184 170t-256.5 62.5q-145 0 -255.5 -62.5t-184.5 -170t-112 -253t-38 -311.5zM602 367v974q35 18 89 31.5t120 13.5q141 0 213 -73.5t72 -188.5q0 -59 -20.5 -105t-56.5 -77t-84 -48t-101 -17l288 -510h-114l-271 507 h-41v-507h-94zM696 928q14 -2 36 -3t44 -1q57 0 100.5 17t70 46t39.5 64.5t13 72.5q0 90 -43 144.5t-145 54.5q-35 0 -64.5 -5t-50.5 -13v-377z" />
<glyph unicode="&#xaf;" horiz-adv-x="450" d="M0 1425v82h451v-82h-451z" />
<glyph unicode="&#xb0;" d="M135 1380q0 74 29 139.5t78 114.5t114.5 78t139.5 29t139 -29t114.5 -78t78 -114.5t28.5 -139.5t-28.5 -139t-78 -114.5t-115 -78t-138.5 -28.5q-74 0 -139.5 28.5t-114.5 78t-78 115t-29 138.5zM231 1380q0 -55 20.5 -104t55.5 -85t84 -57.5t105 -21.5q55 0 104 21.5 t84 57.5t55.5 85t20.5 104t-20.5 104.5t-55.5 86.5t-84 58.5t-104 21.5t-104.5 -21.5t-84.5 -58.5t-55.5 -86t-20.5 -105z" />
<glyph unicode="&#xb1;" d="M160 244v94h671v-94h-671zM160 852v94h284v340h103v-340h284v-94h-284v-344h-103v344h-284z" />
<glyph unicode="&#xb2;" horiz-adv-x="729" d="M98 686l308 559q39 70 56 121t17 104q0 74 -42 132.5t-136 58.5q-45 0 -89 -13.5t-69 -29.5l-32 63q33 23 85 41.5t105 18.5q70 0 122 -20.5t86 -57.5t51.5 -86t17.5 -107q0 -57 -28 -123.5t-71 -142.5l-246 -428h365v-90h-500z" />
<glyph unicode="&#xb3;" horiz-adv-x="729" d="M102 727l33 70q27 -18 72 -33.5t92 -15.5q84 0 136 61t52 158q0 106 -66.5 167.5t-182.5 63.5v68q49 2 92 21.5t74.5 50t49 70.5t17.5 87q0 74 -42 120t-120 46q-45 0 -90 -13.5t-69 -27.5l-33 61q33 23 87 41.5t105 18.5q123 0 190.5 -67.5t67.5 -178.5q0 -45 -17.5 -85 t-43 -72.5t-55 -55t-52.5 -33.5v-4q27 -10 58.5 -31.5t60.5 -55.5t48.5 -81t19.5 -110t-21.5 -118.5t-59.5 -95.5t-91.5 -63.5t-114.5 -23.5q-57 0 -108.5 17t-88.5 44z" />
<glyph unicode="&#xb4;" horiz-adv-x="450" d="M143 1393l138 276q39 31 73 31q18 0 33.5 -7t22.5 -24l-203 -276h-64z" />
<glyph unicode="&#xb6;" d="M37 1364q0 72 20.5 136.5t63.5 113.5t110.5 77.5t161.5 28.5h525v-78h-97v-1970h-102v1970h-311v-1970h-103v1346q-129 20 -198.5 111.5t-69.5 234.5z" />
<glyph unicode="&#xb7;" horiz-adv-x="450" d="M139 809q0 35 25.5 60.5t60.5 25.5t60.5 -25.5t25.5 -60.5t-25.5 -60.5t-60.5 -25.5t-60.5 25.5t-25.5 60.5z" />
<glyph unicode="&#xb8;" horiz-adv-x="450" d="M20 -340l31 57q113 -12 182.5 9.5t69.5 58.5q0 35 -44 49t-144 8l28 58q16 2 31.5 2h32.5q199 0 199 -111q0 -70 -81 -104.5t-204 -34.5q-25 0 -50.5 2t-50.5 6z" />
<glyph unicode="&#xb9;" horiz-adv-x="729" d="M123 1585q39 6 80 18.5t76.5 30t63.5 40t40 46.5h63v-1034h-94v893q-43 -20 -104.5 -35.5t-116.5 -19.5z" />
<glyph unicode="&#xba;" horiz-adv-x="901" d="M115 1225q0 115 18.5 210t58 162.5t103 105.5t156.5 38q92 0 155.5 -38t103.5 -105.5t58 -162.5t18 -210t-18 -210t-58 -163t-103.5 -105.5t-155.5 -37.5t-156 37.5t-103.5 105.5t-58 163t-18.5 210zM227 1229q0 -90 11.5 -171t37 -141.5t68.5 -96.5t107 -36q63 0 106 36 t68.5 96.5t37 141.5t11.5 171t-11.5 170t-37 140t-68.5 95t-106 35t-106.5 -35t-69 -95t-37 -140t-11.5 -170z" />
<glyph unicode="&#xbb;" horiz-adv-x="921" d="M152 356l163 422l-163 422l65 29l213 -451l-213 -450zM492 356l163 422l-163 422l65 29l213 -451l-213 -450z" />
<glyph unicode="&#xbc;" horiz-adv-x="1433" d="M78 1559q92 14 162.5 59t97.5 102h63v-1034h-94v866q-49 -23 -105.5 -34t-115.5 -17zM348 16l629 1721l88 -33l-629 -1720zM821 242v71l348 721h84v-721h70v-71h-70v-242h-94v242h-338zM903 313h260v459v37.5t2 36.5q0 18 2 35h-4q-6 -16 -12 -33q-6 -14 -12 -32.5 t-17 -37.5z" />
<glyph unicode="&#xbd;" horiz-adv-x="1433" d="M78 1585q39 6 80 18.5t76.5 30t63.5 40t40 46.5h63v-1034h-94v893q-43 -20 -104.5 -35.5t-116.5 -19.5zM311 16l629 1721l88 -33l-629 -1720zM836 0l327 559q41 68 57.5 120t16.5 105q0 37 -8 72t-28.5 60.5t-52.5 42t-79 16.5q-41 0 -82 -13.5t-65 -29.5l-33 63 q33 23 83 41.5t97 18.5q70 0 120 -20.5t83 -57.5t48 -86t15 -107q0 -57 -26.5 -124.5t-71.5 -141.5l-262 -428h360v-90h-499z" />
<glyph unicode="&#xbe;" horiz-adv-x="1433" d="M98 727l33 70q27 -18 72 -33.5t92 -15.5q84 0 136 61t52 158q0 106 -66.5 167.5t-183.5 63.5v68q49 2 92.5 21.5t75 50t49 70.5t17.5 87q0 74 -42 120t-120 46q-45 0 -90 -13.5t-70 -27.5l-32 61q33 23 87 41.5t105 18.5q123 0 190.5 -67.5t67.5 -178.5q0 -45 -17.5 -85 t-43 -72.5t-55 -55t-52.5 -33.5v-4q27 -10 58.5 -31.5t60.5 -55.5t48.5 -81t19.5 -110t-21.5 -118.5t-59.5 -95.5t-91.5 -63.5t-114.5 -23.5q-57 0 -108.5 17t-88.5 44zM416 12l628 1721l89 -33l-629 -1720zM821 242v71l348 721h84v-721h70v-71h-70v-242h-94v242h-338z M903 313h260v459v37.5t2 36.5q0 18 2 35h-4q-6 -16 -12 -33q-6 -14 -12 -32.5t-17 -37.5z" />
<glyph unicode="&#xbf;" horiz-adv-x="819" d="M115 23q0 147 77.5 261.5t196.5 186.5l12 440h91l12 -479q-68 -35 -119 -83t-84 -102t-49 -111.5t-16 -112.5t15 -104.5t46 -86.5t76 -58.5t104 -21.5q66 0 122 21.5t85 42.5l41 -82q-41 -33 -109.5 -57.5t-138.5 -24.5q-90 0 -157.5 29.5t-112.5 80t-68.5 118 t-23.5 143.5zM360 1319q0 35 26 60.5t60 25.5q35 0 60.5 -25.5t25.5 -60.5t-25.5 -60.5t-60.5 -25.5t-60.5 25.5t-25.5 60.5z" />
<glyph unicode="&#xc0;" horiz-adv-x="1032" d="M45 0l412 1720h118l412 -1720h-129l-104 473h-484l-104 -473h-121zM291 559h442l-184 832q-8 35 -14.5 70.5t-10.5 64.5q-6 35 -10 65h-4q-4 -31 -10 -65q-4 -29 -10.5 -65t-14.5 -70zM293 2140q6 16 21.5 23.5t33.5 7.5q20 0 36.5 -7t37.5 -24l137 -276h-63z" />
<glyph unicode="&#xc1;" horiz-adv-x="1032" d="M45 0l412 1720h118l412 -1720h-129l-104 473h-484l-104 -473h-121zM291 559h442l-184 832q-8 35 -14.5 70.5t-10.5 64.5q-6 35 -10 65h-4q-4 -31 -10 -65q-4 -29 -10.5 -65t-14.5 -70zM473 1864l137 276q39 31 74 31q18 0 33.5 -7t21.5 -24l-202 -276h-64z" />
<glyph unicode="&#xc2;" horiz-adv-x="1032" d="M45 0l412 1720h118l412 -1720h-129l-104 473h-484l-104 -473h-121zM291 559h442l-184 832q-8 35 -14.5 70.5t-10.5 64.5q-6 35 -10 65h-4q-4 -31 -10 -65q-4 -29 -10.5 -65t-14.5 -70zM295 1884l172 203q20 27 49 27t49 -27l172 -203l-35 -41l-186 170l-186 -170z" />
<glyph unicode="&#xc3;" horiz-adv-x="1032" d="M45 0l412 1720h118l412 -1720h-129l-104 473h-484l-104 -473h-121zM287 1925q16 35 52 62.5t85 27.5q31 0 54.5 -10t45 -23.5t43 -23.5t49.5 -10q35 0 58.5 18.5t36.5 38.5l43 -45q-16 -35 -52 -62.5t-86 -27.5q-31 0 -54 10t-44.5 23.5t-44 23.5t-49.5 10 q-35 0 -58.5 -18t-35.5 -39zM291 559h442l-184 832q-8 35 -14.5 70.5t-10.5 64.5q-6 35 -10 65h-4q-4 -31 -10 -65q-4 -29 -10.5 -65t-14.5 -70z" />
<glyph unicode="&#xc4;" horiz-adv-x="1032" d="M45 0l412 1720h118l412 -1720h-129l-104 473h-484l-104 -473h-121zM291 559h442l-184 832q-8 35 -14.5 70.5t-10.5 64.5q-6 35 -10 65h-4q-4 -31 -10 -65q-4 -29 -10.5 -65t-14.5 -70zM307 1942q0 29 20.5 49t49.5 20t49 -20t20 -49t-20 -49.5t-49 -20.5t-49.5 20.5 t-20.5 49.5zM586 1942q0 29 20.5 49t48.5 20q29 0 49.5 -20t20.5 -49t-20.5 -49.5t-49.5 -20.5t-49 20.5t-20 49.5z" />
<glyph unicode="&#xc5;" horiz-adv-x="1032" d="M45 0l412 1720h118l412 -1720h-129l-104 473h-484l-104 -473h-121zM291 559h442l-184 832q-8 35 -14.5 70.5t-10.5 64.5q-6 35 -10 65h-4q-4 -31 -10 -65q-4 -29 -10.5 -65t-14.5 -70zM360 2003q0 66 45.5 111t110.5 45q66 0 111 -45t45 -111t-45 -111t-111 -45t-111 45 t-45 111zM420 2003q0 -41 27.5 -69.5t68.5 -28.5t68.5 28.5t27.5 69.5t-27.5 70.5t-68.5 29.5t-68.5 -29.5t-27.5 -70.5z" />
<glyph unicode="&#xc6;" horiz-adv-x="1392" d="M20 0l504 1720h680v-90h-547l134 -704h413v-90h-397l139 -746h389v-90h-495l-82 473h-484l-131 -473h-123zM297 559h446l-143 832q-6 35 -10 70.5t-8 64.5q-4 35 -7 65h-4q-6 -31 -14 -65q-6 -29 -13 -65t-18 -70z" />
<glyph unicode="&#xc7;" horiz-adv-x="868" d="M119 860q0 205 28.5 369t86 277.5t144.5 174t204 60.5q72 0 130 -25.5t91 -56.5l-39 -80q-29 25 -79 44t-103 19q-170 0 -254 -203.5t-84 -574.5q0 -369 83 -573.5t253 -204.5q59 0 106 19.5t76 44.5l41 -89q-33 -31 -89.5 -56t-131.5 -25q-117 0 -204 60t-144.5 174 t-86 277.5t-28.5 368.5zM287 -340l30 57q113 -12 182.5 9.5t69.5 58.5q0 35 -44 49t-144 8l29 58q16 2 31.5 2h31.5q199 0 199 -111q0 -70 -81 -104.5t-204 -34.5q-25 0 -50.5 2t-49.5 6z" />
<glyph unicode="&#xc8;" horiz-adv-x="827" d="M160 0v1720h549v-90h-430v-704h393v-90h-393v-742h430v-94h-549zM246 2140q6 16 21.5 23.5t33.5 7.5q20 0 36.5 -7t37.5 -24l137 -276h-63z" />
<glyph unicode="&#xc9;" horiz-adv-x="827" d="M160 0v1720h549v-90h-430v-704h393v-90h-393v-742h430v-94h-549zM360 1864l138 276q39 31 73 31q18 0 34 -7t22 -24l-203 -276h-64z" />
<glyph unicode="&#xca;" horiz-adv-x="827" d="M160 0v1720h549v-90h-430v-704h393v-90h-393v-742h430v-94h-549zM213 1884l172 203q20 27 49 27t49 -27l172 -203l-34 -41l-187 170l-186 -170z" />
<glyph unicode="&#xcb;" horiz-adv-x="827" d="M160 0v1720h549v-90h-430v-704h393v-90h-393v-742h430v-94h-549zM225 1942q0 29 20.5 49t49.5 20t49.5 -20t20.5 -49t-20.5 -49.5t-49.5 -20.5t-49.5 20.5t-20.5 49.5zM504 1942q0 29 20.5 49t48.5 20q29 0 49.5 -20t20.5 -49t-20.5 -49.5t-49.5 -20.5t-49 20.5t-20 49.5 z" />
<glyph unicode="&#xcc;" horiz-adv-x="462" d="M25 2140q6 16 21 23.5t34 7.5q20 0 36.5 -7t37.5 -24l137 -276h-64zM172 0v1720h119v-1720h-119z" />
<glyph unicode="&#xcd;" horiz-adv-x="462" d="M172 0v1720h119v-1720h-119zM172 1864l137 276q39 31 74 31q18 0 33.5 -7t21.5 -24l-202 -276h-64z" />
<glyph unicode="&#xce;" horiz-adv-x="462" d="M10 1884l172 203q20 27 49 27t50 -27l172 -203l-35 -41l-187 170l-186 -170zM172 0v1720h119v-1720h-119z" />
<glyph unicode="&#xcf;" horiz-adv-x="462" d="M23 1942q0 29 20 49t49 20t49.5 -20t20.5 -49t-20.5 -49.5t-49.5 -20.5t-49 20.5t-20 49.5zM172 0v1720h119v-1720h-119zM301 1942q0 29 20.5 49t49.5 20t49 -20t20 -49t-20.5 -49.5t-48.5 -20.5q-29 0 -49.5 20.5t-20.5 49.5z" />
<glyph unicode="&#xd0;" horiz-adv-x="1097" d="M82 836v86h111v737q41 29 112.5 55.5t173.5 26.5q121 0 214 -61.5t156.5 -175t96.5 -277.5t33 -367t-33 -366.5t-96.5 -277.5t-156.5 -175t-214 -61q-98 0 -172 25.5t-114 55.5v775h-111zM311 106q20 -10 63.5 -19t96.5 -9q193 0 289 200.5t96 581.5q0 395 -101.5 593 t-283.5 198q-55 0 -94 -8.5t-66 -20.5v-700h250v-86h-250v-730z" />
<glyph unicode="&#xd1;" horiz-adv-x="1159" d="M160 0v1720h139l545 -1401q12 -31 22.5 -62.5t18.5 -57.5q8 -31 16 -58h4q-2 29 -2 60q-2 27 -2 59.5v65.5v1394h98v-1720h-129l-553 1417q-12 31 -23 61.5t-20 55.5q-8 29 -16 55h-4q0 -27 2 -57q0 -27 1 -58.5t1 -62.5v-1411h-98zM348 1925q16 35 52 62.5t85 27.5 q31 0 54.5 -10t45 -23.5t43 -23.5t50.5 -10q35 0 58.5 18.5t35.5 38.5l43 -45q-16 -35 -52 -62.5t-85 -27.5q-31 0 -54.5 10t-45 23.5t-44 23.5t-49.5 10q-35 0 -58.5 -18t-35.5 -39z" />
<glyph unicode="&#xd2;" horiz-adv-x="1093" d="M119 860q0 211 25.5 375t77.5 276.5t133 171t192 58.5t191.5 -58.5t133 -171t78 -276.5t25.5 -375t-25.5 -374.5t-78 -276.5t-133.5 -171t-191 -58q-111 0 -192 58t-133 171t-77.5 276.5t-25.5 374.5zM242 864q0 -184 17 -330.5t54 -248t95.5 -154.5t138.5 -53t138 53 t95 154.5t54.5 248t17.5 330.5t-17.5 329.5t-54.5 247t-95 156t-138 54.5t-138.5 -54.5t-95.5 -156t-54 -246.5t-17 -330zM336 2140q6 16 21.5 23.5t33.5 7.5q20 0 36.5 -7t37.5 -24l137 -276h-63z" />
<glyph unicode="&#xd3;" horiz-adv-x="1093" d="M119 860q0 211 25.5 375t77.5 276.5t133 171t192 58.5t191.5 -58.5t133 -171t78 -276.5t25.5 -375t-25.5 -374.5t-78 -276.5t-133.5 -171t-191 -58q-111 0 -192 58t-133 171t-77.5 276.5t-25.5 374.5zM242 864q0 -184 17 -330.5t54 -248t95.5 -154.5t138.5 -53t138 53 t95 154.5t54.5 248t17.5 330.5t-17.5 329.5t-54.5 247t-95 156t-138 54.5t-138.5 -54.5t-95.5 -156t-54 -246.5t-17 -330zM492 1864l137 276q39 31 73 31q18 0 34 -7t22 -24l-203 -276h-63z" />
<glyph unicode="&#xd4;" horiz-adv-x="1093" d="M119 860q0 211 25.5 375t77.5 276.5t133 171t192 58.5t191.5 -58.5t133 -171t78 -276.5t25.5 -375t-25.5 -374.5t-78 -276.5t-133.5 -171t-191 -58q-111 0 -192 58t-133 171t-77.5 276.5t-25.5 374.5zM242 864q0 -184 17 -330.5t54 -248t95.5 -154.5t138.5 -53t138 53 t95 154.5t54.5 248t17.5 330.5t-17.5 329.5t-54.5 247t-95 156t-138 54.5t-138.5 -54.5t-95.5 -156t-54 -246.5t-17 -330zM326 1884l172 203q20 27 49 27t49 -27l172 -203l-35 -41l-186 170l-187 -170z" />
<glyph unicode="&#xd5;" horiz-adv-x="1093" d="M119 860q0 211 25.5 375t77.5 276.5t133 171t192 58.5t191.5 -58.5t133 -171t78 -276.5t25.5 -375t-25.5 -374.5t-78 -276.5t-133.5 -171t-191 -58q-111 0 -192 58t-133 171t-77.5 276.5t-25.5 374.5zM242 864q0 -184 17 -330.5t54 -248t95.5 -154.5t138.5 -53t138 53 t95 154.5t54.5 248t17.5 330.5t-17.5 329.5t-54.5 247t-95 156t-138 54.5t-138.5 -54.5t-95.5 -156t-54 -246.5t-17 -330zM315 1925q16 35 52 62.5t86 27.5q31 0 54 -10t44.5 -23.5t43 -23.5t50.5 -10q35 0 58.5 18.5t35.5 38.5l43 -45q-16 -35 -52 -62.5t-85 -27.5 q-31 0 -54.5 10t-45 23.5t-44 23.5t-48.5 10q-35 0 -58.5 -18t-36.5 -39z" />
<glyph unicode="&#xd6;" horiz-adv-x="1093" d="M119 860q0 211 25.5 375t77.5 276.5t133 171t192 58.5t191.5 -58.5t133 -171t78 -276.5t25.5 -375t-25.5 -374.5t-78 -276.5t-133.5 -171t-191 -58q-111 0 -192 58t-133 171t-77.5 276.5t-25.5 374.5zM242 864q0 -184 17 -330.5t54 -248t95.5 -154.5t138.5 -53t138 53 t95 154.5t54.5 248t17.5 330.5t-17.5 329.5t-54.5 247t-95 156t-138 54.5t-138.5 -54.5t-95.5 -156t-54 -246.5t-17 -330zM338 1942q0 29 20.5 49t49.5 20t49 -20t20 -49t-20.5 -49.5t-48.5 -20.5q-29 0 -49.5 20.5t-20.5 49.5zM616 1942q0 29 20.5 49t49.5 20t49.5 -20 t20.5 -49t-20.5 -49.5t-49.5 -20.5t-49.5 20.5t-20.5 49.5z" />
<glyph unicode="&#xd7;" d="M152 471l280 348l-280 346l77 60l267 -330l266 330l78 -60l-281 -348l281 -346l-78 -59l-266 329l-267 -329z" />
<glyph unicode="&#xd8;" horiz-adv-x="1093" d="M119 860q0 211 25.5 375t77.5 276.5t133 171t192 58.5q166 0 264 -127l96 241l66 -26l-115 -289q59 -113 88 -284t29 -396q0 -211 -25.5 -374.5t-78 -276.5t-133.5 -171t-191 -58q-164 0 -264 129l-97 -242l-65 27l115 286q-59 113 -88 284t-29 396zM229 864 q0 -172 14.5 -308t47.5 -239l475 1186q-78 156 -219 156q-84 0 -144.5 -54.5t-98.5 -156.5t-56.5 -249.5t-18.5 -334.5zM330 223q78 -154 217 -153q84 0 144.5 54t98 156.5t56 250t18.5 333.5q0 342 -61 543z" />
<glyph unicode="&#xd9;" horiz-adv-x="1044" d="M160 369v1351h119v-1351q0 -137 69.5 -212t177.5 -75q109 0 178.5 74.5t69.5 212.5v1351h111v-1351q0 -90 -28 -163t-77 -123t-115.5 -76.5t-142.5 -26.5q-78 0 -143.5 26.5t-114.5 76.5t-76.5 123t-27.5 163zM319 2140q6 16 21.5 23.5t34.5 7.5q20 0 36.5 -7t37.5 -24 l137 -276h-64z" />
<glyph unicode="&#xda;" horiz-adv-x="1044" d="M160 369v1351h119v-1351q0 -137 69.5 -212t177.5 -75q109 0 178.5 74.5t69.5 212.5v1351h111v-1351q0 -90 -28 -163t-77 -123t-115.5 -76.5t-142.5 -26.5q-78 0 -143.5 26.5t-114.5 76.5t-76.5 123t-27.5 163zM467 1864l137 276q39 31 74 31q18 0 33.5 -7t21.5 -24 l-203 -276h-63z" />
<glyph unicode="&#xdb;" horiz-adv-x="1044" d="M160 369v1351h119v-1351q0 -137 69.5 -212t177.5 -75q109 0 178.5 74.5t69.5 212.5v1351h111v-1351q0 -90 -28 -163t-77 -123t-115.5 -76.5t-142.5 -26.5q-78 0 -143.5 26.5t-114.5 76.5t-76.5 123t-27.5 163zM305 1884l172 203q20 27 49 27t49 -27l173 -203l-35 -41 l-187 170l-186 -170z" />
<glyph unicode="&#xdc;" horiz-adv-x="1044" d="M160 369v1351h119v-1351q0 -137 69.5 -212t177.5 -75q109 0 178.5 74.5t69.5 212.5v1351h111v-1351q0 -90 -28 -163t-77 -123t-115.5 -76.5t-142.5 -26.5q-78 0 -143.5 26.5t-114.5 76.5t-76.5 123t-27.5 163zM317 1942q0 29 20.5 49t49.5 20t49.5 -20t20.5 -49 t-20.5 -49.5t-49.5 -20.5t-49.5 20.5t-20.5 49.5zM596 1942q0 29 20.5 49t49.5 20t49 -20t20 -49t-20.5 -49.5t-48.5 -20.5q-29 0 -49.5 20.5t-20.5 49.5z" />
<glyph unicode="&#xdd;" horiz-adv-x="917" d="M37 1720h131l293 -841h4l293 841h123l-363 -954v-766h-119v766zM424 1864l137 276q39 31 74 31q18 0 33.5 -7t21.5 -24l-203 -276h-63z" />
<glyph unicode="&#xde;" horiz-adv-x="942" d="M160 0v1720h119v-362q23 10 65.5 18t89.5 8q117 0 198 -36.5t130 -100t71.5 -148.5t22.5 -179q0 -100 -27.5 -186.5t-85 -149t-146.5 -98t-212 -35.5q-29 0 -56.5 2t-49.5 6v-459h-119zM279 543q43 -6 106 -6q96 0 162.5 28.5t108.5 79.5t60.5 122t18.5 153 q0 84 -14 153.5t-49 119.5t-92.5 77.5t-145.5 27.5q-45 0 -87 -8t-68 -20v-727z" />
<glyph unicode="&#xdf;" horiz-adv-x="1007" d="M152 0v1221q0 117 20.5 213t62 163.5t107.5 105.5t158 38q88 0 151.5 -35t104.5 -93.5t61.5 -137t20.5 -166.5q0 -25 -2 -56.5t-5.5 -63.5t-8.5 -60.5t-11 -47.5q-117 -29 -169 -82t-52 -139q0 -51 23.5 -94t58.5 -83t75.5 -80t75.5 -87t58.5 -104t23.5 -129 q0 -66 -19.5 -121.5t-56 -95t-91 -63t-122.5 -23.5q-27 0 -58.5 7t-61 18t-56 25.5t-41.5 30.5l35 84q10 -12 30.5 -23t45.5 -21.5t51.5 -16.5t50.5 -6q86 0 131 56t45 149q0 59 -23.5 108t-57 91t-74.5 83t-75 85t-57.5 95.5t-23.5 114.5q0 57 19.5 102.5t51.5 79t74 56 t89 39.5q6 33 9 85t3 91q0 70 -11.5 132t-38 109.5t-68.5 74t-105 26.5q-127 -2 -180.5 -119t-53.5 -315v-1221h-114z" />
<glyph unicode="&#xe0;" horiz-adv-x="868" d="M98 365q0 119 42 202.5t113 140t163 88t190 44.5v88q0 131 -51 189.5t-156 58.5q-78 0 -135 -23t-90 -45l-31 80q37 29 105.5 55.5t154.5 26.5q313 0 314 -338v-871q-43 -33 -118 -57t-159 -24q-90 0 -155.5 33.5t-106.5 89t-60.5 124t-19.5 138.5zM213 365 q0 -59 14.5 -113.5t44 -94.5t73.5 -63.5t104 -23.5q49 0 91 10t66 26v650q-84 -12 -155.5 -39t-125 -72t-83 -113.5t-29.5 -166.5zM242 1669q6 16 21.5 23.5t33.5 7.5q20 0 36.5 -7t37.5 -24l137 -276h-64z" />
<glyph unicode="&#xe1;" horiz-adv-x="868" d="M98 365q0 119 42 202.5t113 140t163 88t190 44.5v88q0 131 -51 189.5t-156 58.5q-78 0 -135 -23t-90 -45l-31 80q37 29 105.5 55.5t154.5 26.5q313 0 314 -338v-871q-43 -33 -118 -57t-159 -24q-90 0 -155.5 33.5t-106.5 89t-60.5 124t-19.5 138.5zM213 365 q0 -59 14.5 -113.5t44 -94.5t73.5 -63.5t104 -23.5q49 0 91 10t66 26v650q-84 -12 -155.5 -39t-125 -72t-83 -113.5t-29.5 -166.5zM360 1393l138 276q39 31 73 31q18 0 34 -7t22 -24l-203 -276h-64z" />
<glyph unicode="&#xe2;" horiz-adv-x="868" d="M98 365q0 119 42 202.5t113 140t163 88t190 44.5v88q0 131 -51 189.5t-156 58.5q-78 0 -135 -23t-90 -45l-31 80q37 29 105.5 55.5t154.5 26.5q313 0 314 -338v-871q-43 -33 -118 -57t-159 -24q-90 0 -155.5 33.5t-106.5 89t-60.5 124t-19.5 138.5zM195 1413l172 203 q20 27 49 26q29 0 49 -26l172 -203l-35 -41l-186 170l-187 -170zM213 365q0 -59 14.5 -113.5t44 -94.5t73.5 -63.5t104 -23.5q49 0 91 10t66 26v650q-84 -12 -155.5 -39t-125 -72t-83 -113.5t-29.5 -166.5z" />
<glyph unicode="&#xe3;" horiz-adv-x="868" d="M98 365q0 119 42 202.5t113 140t163 88t190 44.5v88q0 131 -51 189.5t-156 58.5q-78 0 -135 -23t-90 -45l-31 80q37 29 105.5 55.5t154.5 26.5q313 0 314 -338v-871q-43 -33 -118 -57t-159 -24q-90 0 -155.5 33.5t-106.5 89t-60.5 124t-19.5 138.5zM195 1454 q16 35 52 62.5t85 27.5q31 0 54.5 -10t45 -23.5t43 -23.5t49.5 -10q35 0 58.5 18t35.5 39l44 -45q-16 -35 -52.5 -62.5t-85.5 -27.5q-31 0 -54.5 10t-45 23.5t-44 23.5t-48.5 10q-35 0 -58.5 -18t-35.5 -39zM213 365q0 -59 14.5 -113.5t44 -94.5t73.5 -63.5t104 -23.5 q49 0 91 10t66 26v650q-84 -12 -155.5 -39t-125 -72t-83 -113.5t-29.5 -166.5z" />
<glyph unicode="&#xe4;" horiz-adv-x="868" d="M98 365q0 119 42 202.5t113 140t163 88t190 44.5v88q0 131 -51 189.5t-156 58.5q-78 0 -135 -23t-90 -45l-31 80q37 29 105.5 55.5t154.5 26.5q313 0 314 -338v-871q-43 -33 -118 -57t-159 -24q-90 0 -155.5 33.5t-106.5 89t-60.5 124t-19.5 138.5zM213 365 q0 -59 14.5 -113.5t44 -94.5t73.5 -63.5t104 -23.5q49 0 91 10t66 26v650q-84 -12 -155.5 -39t-125 -72t-83 -113.5t-29.5 -166.5zM231 1470q0 29 20.5 49.5t49.5 20.5t49.5 -20.5t20.5 -49.5t-20.5 -49t-49.5 -20t-49.5 20.5t-20.5 48.5zM510 1470q0 29 20.5 49.5 t49.5 20.5t49 -20.5t20 -49.5t-20.5 -49t-48.5 -20q-29 0 -49.5 20.5t-20.5 48.5z" />
<glyph unicode="&#xe5;" horiz-adv-x="868" d="M98 365q0 119 42 202.5t113 140t163 88t190 44.5v88q0 131 -51 189.5t-156 58.5q-78 0 -135 -23t-90 -45l-31 80q37 29 105.5 55.5t154.5 26.5q313 0 314 -338v-871q-43 -33 -118 -57t-159 -24q-90 0 -155.5 33.5t-106.5 89t-60.5 124t-19.5 138.5zM213 365 q0 -59 14.5 -113.5t44 -94.5t73.5 -63.5t104 -23.5q49 0 91 10t66 26v650q-84 -12 -155.5 -39t-125 -72t-83 -113.5t-29.5 -166.5zM279 1532q0 66 45 111t110 45q66 0 111 -45t45 -111t-45 -111t-111 -45t-110.5 45t-44.5 111zM338 1532q0 -41 27.5 -69.5t68.5 -28.5 t68.5 28.5t27.5 69.5t-27.5 70.5t-68.5 29.5t-68.5 -29.5t-27.5 -70.5z" />
<glyph unicode="&#xe6;" horiz-adv-x="1396" d="M98 365q0 119 43 202.5t115 140t164 88t190 44.5v88q0 121 -53 184.5t-158 63.5q-78 0 -135 -23t-90 -45l-31 80q37 29 105.5 55.5t154.5 26.5q68 0 115 -16.5t79 -43t52.5 -62.5t34.5 -75q16 37 41 72t58.5 62.5t75.5 45t93 17.5q86 0 148.5 -43t104.5 -120t61.5 -182.5 t19.5 -232.5q0 -16 -1 -33.5t-1 -33.5l-577 -72q4 -104 23.5 -190.5t55 -149.5t85 -98t114.5 -35q88 0 144.5 19.5t93.5 47.5l34 -86q-35 -29 -104.5 -55t-167.5 -26q-61 0 -110.5 19t-86 51t-62.5 71t-40 76q-10 -39 -28.5 -78t-49 -70t-77 -50t-109.5 -19q-152 0 -238 105 t-86 280zM213 365q0 -131 55.5 -213t153.5 -82q86 0 137 65.5t51 173.5v447q-84 -12 -156.5 -38t-126 -72t-84 -114.5t-30.5 -166.5zM705 637l464 57q-6 236 -54 363t-167 127q-113 0 -178 -133t-65 -414z" />
<glyph unicode="&#xe7;" horiz-adv-x="765" d="M111 625q0 315 90 480t268 165q78 0 131 -26.5t80 -55.5l-37 -78q-23 23 -67 44.5t-99 21.5q-125 0 -186.5 -139.5t-61.5 -407.5t63.5 -408.5t184.5 -140.5q55 0 99.5 20.5t66.5 44.5l37 -84q-27 -27 -78 -54t-133 -27q-178 0 -268 164.5t-90 480.5zM205 -340l31 57 q113 -12 182 9.5t69 58.5q0 35 -44 49t-144 8l29 58q16 2 31.5 2h31.5q199 0 199 -111q0 -70 -81 -104.5t-204 -34.5q-25 0 -50.5 2t-49.5 6z" />
<glyph unicode="&#xe8;" horiz-adv-x="917" d="M111 598q0 180 26.5 308t74.5 209t114.5 118t146.5 37q86 0 148.5 -43t104.5 -120t61.5 -182.5t19.5 -232.5q0 -16 -1 -33.5t-1 -33.5l-578 -72q0 -96 19.5 -182t55.5 -150.5t87 -102.5t117 -38q88 0 145.5 20.5t91.5 46.5l35 -86q-35 -29 -104.5 -55t-167.5 -26 q-88 0 -161 40.5t-125 119.5t-80.5 194t-28.5 264zM225 637l465 57q-6 236 -54 363t-167 127q-113 0 -178.5 -133t-65.5 -414zM250 1669q6 16 21.5 23.5t33.5 7.5q20 0 36.5 -7t37.5 -24l137 -276h-63z" />
<glyph unicode="&#xe9;" horiz-adv-x="917" d="M111 598q0 180 26.5 308t74.5 209t114.5 118t146.5 37q86 0 148.5 -43t104.5 -120t61.5 -182.5t19.5 -232.5q0 -16 -1 -33.5t-1 -33.5l-578 -72q0 -96 19.5 -182t55.5 -150.5t87 -102.5t117 -38q88 0 145.5 20.5t91.5 46.5l35 -86q-35 -29 -104.5 -55t-167.5 -26 q-88 0 -161 40.5t-125 119.5t-80.5 194t-28.5 264zM225 637l465 57q-6 236 -54 363t-167 127q-113 0 -178.5 -133t-65.5 -414zM406 1393l137 276q39 31 73 31q18 0 34 -7t22 -24l-203 -276h-63z" />
<glyph unicode="&#xea;" horiz-adv-x="917" d="M111 598q0 180 26.5 308t74.5 209t114.5 118t146.5 37q86 0 148.5 -43t104.5 -120t61.5 -182.5t19.5 -232.5q0 -16 -1 -33.5t-1 -33.5l-578 -72q0 -96 19.5 -182t55.5 -150.5t87 -102.5t117 -38q88 0 145.5 20.5t91.5 46.5l35 -86q-35 -29 -104.5 -55t-167.5 -26 q-88 0 -161 40.5t-125 119.5t-80.5 194t-28.5 264zM225 637l465 57q-6 236 -54 363t-167 127q-113 0 -178.5 -133t-65.5 -414zM242 1413l172 203q20 27 49 26q29 0 49 -26l172 -203l-35 -41l-186 170l-187 -170z" />
<glyph unicode="&#xeb;" horiz-adv-x="917" d="M111 598q0 180 26.5 308t74.5 209t114.5 118t146.5 37q86 0 148.5 -43t104.5 -120t61.5 -182.5t19.5 -232.5q0 -16 -1 -33.5t-1 -33.5l-578 -72q0 -96 19.5 -182t55.5 -150.5t87 -102.5t117 -38q88 0 145.5 20.5t91.5 46.5l35 -86q-35 -29 -104.5 -55t-167.5 -26 q-88 0 -161 40.5t-125 119.5t-80.5 194t-28.5 264zM225 637l465 57q-6 236 -54 363t-167 127q-113 0 -178.5 -133t-65.5 -414zM258 1470q0 29 20.5 49.5t49.5 20.5t49 -20.5t20 -49.5t-20.5 -49t-48.5 -20q-29 0 -49.5 20.5t-20.5 48.5zM537 1470q0 29 20.5 49.5t48.5 20.5 q29 0 49.5 -20.5t20.5 -49.5t-20.5 -49t-49.5 -20t-49 20.5t-20 48.5z" />
<glyph unicode="&#xec;" horiz-adv-x="434" d="M8 1669q6 16 21.5 23.5t33.5 7.5q20 0 37 -7t37 -24l137 -276h-63zM160 0v1249h114v-1249h-114z" />
<glyph unicode="&#xed;" horiz-adv-x="434" d="M160 0v1249h114v-1249h-114zM160 1393l137 276q39 31 74 31q18 0 33.5 -7t21.5 -24l-203 -276h-63z" />
<glyph unicode="&#xee;" horiz-adv-x="434" d="M-4 1413l172 203q20 27 49 26q29 0 49 -26l172 -203l-35 -41l-186 170l-186 -170zM160 0v1249h114v-1249h-114z" />
<glyph unicode="&#xef;" horiz-adv-x="434" d="M8 1470q0 29 20.5 49.5t49.5 20.5t49 -20.5t20 -49.5t-20.5 -49t-48.5 -20q-29 0 -49.5 20.5t-20.5 48.5zM160 0v1249h114v-1249h-114zM287 1470q0 29 20.5 49.5t48.5 20.5q29 0 49.5 -20.5t20.5 -49.5t-20.5 -49t-49.5 -20t-49 20.5t-20 48.5z" />
<glyph unicode="&#xf0;" horiz-adv-x="921" d="M111 629q0 147 24.5 265t71.5 201t114.5 127t155.5 44q31 0 61.5 -6.5t55.5 -16.5q-23 70 -49.5 134.5t-57.5 125.5l-153 -55l-35 68l154 55q-20 35 -42 67.5t-44 63.5l96 39q47 -63 88 -135l137 51l35 -68l-137 -49q51 -100 92 -213t69.5 -229.5t44 -235t15.5 -233.5 q0 -143 -18.5 -262t-60.5 -205t-108.5 -134t-160.5 -48q-96 0 -162 48t-108 134t-60 204.5t-18 262.5zM229 629q0 -115 10.5 -215.5t37 -177t70.5 -120.5t112 -44t111.5 44t70.5 120.5t37 177t10 215.5q0 129 -18.5 265t-53.5 269q-23 8 -60.5 14.5t-72.5 6.5 q-66 0 -112.5 -41t-78.5 -114t-47.5 -175t-15.5 -225z" />
<glyph unicode="&#xf1;" horiz-adv-x="929" d="M152 0v1188q49 35 125.5 58.5t175.5 23.5q164 0 244.5 -90t80.5 -238v-942h-114v942q0 111 -50.5 176.5t-169.5 65.5q-59 0 -101 -10.5t-77 -26.5v-1147h-114zM217 1454q16 35 52 62.5t85 27.5q31 0 54.5 -10t45 -23.5t43 -23.5t50.5 -10q35 0 58.5 18t35.5 39l43 -45 q-16 -35 -52 -62.5t-85 -27.5q-31 0 -54.5 10t-45 23.5t-44 23.5t-49.5 10q-35 0 -58.5 -18t-35.5 -39z" />
<glyph unicode="&#xf2;" horiz-adv-x="917" d="M111 625q0 143 18 262t60 204t107.5 132t162.5 47q94 0 160.5 -47t108.5 -132t60.5 -204t18.5 -262t-18.5 -262t-60.5 -204t-108.5 -132t-160.5 -47q-96 0 -162 47t-108 132t-60 203.5t-18 262.5zM229 629q0 -115 10.5 -215.5t37 -177t70.5 -120.5t112 -44t111.5 44 t70.5 120.5t37 177t10 215.5q0 113 -10 214t-37 177t-71 120t-111 44q-68 0 -112 -44t-70.5 -120t-37 -177.5t-10.5 -213.5zM246 1669q6 16 21.5 23.5t33.5 7.5q20 0 36.5 -7t37.5 -24l137 -276h-63z" />
<glyph unicode="&#xf3;" horiz-adv-x="917" d="M111 625q0 143 18 262t60 204t107.5 132t162.5 47q94 0 160.5 -47t108.5 -132t60.5 -204t18.5 -262t-18.5 -262t-60.5 -204t-108.5 -132t-160.5 -47q-96 0 -162 47t-108 132t-60 203.5t-18 262.5zM229 629q0 -115 10.5 -215.5t37 -177t70.5 -120.5t112 -44t111.5 44 t70.5 120.5t37 177t10 215.5q0 113 -10 214t-37 177t-71 120t-111 44q-68 0 -112 -44t-70.5 -120t-37 -177.5t-10.5 -213.5zM406 1393l137 276q39 31 73 31q18 0 34 -7t22 -24l-203 -276h-63z" />
<glyph unicode="&#xf4;" horiz-adv-x="917" d="M111 625q0 143 18 262t60 204t107.5 132t162.5 47q94 0 160.5 -47t108.5 -132t60.5 -204t18.5 -262t-18.5 -262t-60.5 -204t-108.5 -132t-160.5 -47q-96 0 -162 47t-108 132t-60 203.5t-18 262.5zM229 629q0 -115 10.5 -215.5t37 -177t70.5 -120.5t112 -44t111.5 44 t70.5 120.5t37 177t10 215.5q0 113 -10 214t-37 177t-71 120t-111 44q-68 0 -112 -44t-70.5 -120t-37 -177.5t-10.5 -213.5zM238 1413l172 203q20 27 49 26q29 0 49 -26l172 -203l-35 -41l-186 170l-187 -170z" />
<glyph unicode="&#xf5;" horiz-adv-x="917" d="M111 625q0 143 18 262t60 204t107.5 132t162.5 47q94 0 160.5 -47t108.5 -132t60.5 -204t18.5 -262t-18.5 -262t-60.5 -204t-108.5 -132t-160.5 -47q-96 0 -162 47t-108 132t-60 203.5t-18 262.5zM229 629q0 -115 10.5 -215.5t37 -177t70.5 -120.5t112 -44t111.5 44 t70.5 120.5t37 177t10 215.5q0 113 -10 214t-37 177t-71 120t-111 44q-68 0 -112 -44t-70.5 -120t-37 -177.5t-10.5 -213.5zM229 1454q16 35 52 62.5t86 27.5q31 0 54 -10t44.5 -23.5t43 -23.5t50.5 -10q35 0 58.5 18t35.5 39l43 -45q-16 -35 -52 -62.5t-85 -27.5 q-31 0 -54.5 10t-45 23.5t-44 23.5t-48.5 10q-35 0 -58.5 -18t-36.5 -39z" />
<glyph unicode="&#xf6;" horiz-adv-x="917" d="M111 625q0 143 18 262t60 204t107.5 132t162.5 47q94 0 160.5 -47t108.5 -132t60.5 -204t18.5 -262t-18.5 -262t-60.5 -204t-108.5 -132t-160.5 -47q-96 0 -162 47t-108 132t-60 203.5t-18 262.5zM229 629q0 -115 10.5 -215.5t37 -177t70.5 -120.5t112 -44t111.5 44 t70.5 120.5t37 177t10 215.5q0 113 -10 214t-37 177t-71 120t-111 44q-68 0 -112 -44t-70.5 -120t-37 -177.5t-10.5 -213.5zM250 1470q0 29 20.5 49.5t48.5 20.5q29 0 49.5 -20.5t20.5 -49.5t-20.5 -49t-49.5 -20t-49 20.5t-20 48.5zM528 1470q0 29 20.5 49.5t49.5 20.5 t49.5 -20.5t20.5 -49.5t-20.5 -49t-49.5 -20t-49.5 20.5t-20.5 48.5z" />
<glyph unicode="&#xf7;" d="M160 770v94h671v-94h-671zM414 553q0 35 23.5 58.5t58.5 23.5t58.5 -23.5t23.5 -58.5t-24 -58.5t-58 -23.5q-35 0 -58.5 23.5t-23.5 58.5zM414 1081q0 35 23.5 58.5t58.5 23.5t58.5 -23.5t23.5 -58.5t-24 -58.5t-58 -23.5q-35 0 -58.5 24t-23.5 58z" />
<glyph unicode="&#xf8;" horiz-adv-x="917" d="M111 625q0 143 17 262t58 204t107.5 132t165.5 47q129 0 207 -82l79 188l60 -28l-94 -222q53 -86 74.5 -213.5t21.5 -287.5q0 -143 -17.5 -262t-58.5 -204t-107.5 -132t-164.5 -47q-127 0 -205 81l-80 -188l-59 29l94 219q-53 86 -75.5 215t-22.5 289zM221 629 q0 -111 10.5 -207t32.5 -172l357 835q-29 49 -68 77t-94 28q-72 0 -117 -44t-72.5 -121t-38 -179.5t-10.5 -216.5zM299 166q57 -100 160 -100q70 0 116 45t73.5 121.5t37.5 179t10 217.5q0 106 -9 201.5t-32 168.5z" />
<glyph unicode="&#xf9;" horiz-adv-x="929" d="M152 309v940h114v-940q0 -123 56.5 -180t154.5 -57q59 0 111.5 11t75.5 30v1136h114v-1188q-47 -33 -123.5 -57t-177.5 -24q-154 0 -239.5 83.5t-85.5 245.5zM262 1669q6 16 21.5 23.5t33.5 7.5q20 0 37 -7t37 -24l137 -276h-63z" />
<glyph unicode="&#xfa;" horiz-adv-x="929" d="M152 309v940h114v-940q0 -123 56.5 -180t154.5 -57q59 0 111.5 11t75.5 30v1136h114v-1188q-47 -33 -123.5 -57t-177.5 -24q-154 0 -239.5 83.5t-85.5 245.5zM401 1393l138 276q39 31 73 31q18 0 34 -7t22 -24l-203 -276h-64z" />
<glyph unicode="&#xfb;" horiz-adv-x="929" d="M152 309v940h114v-940q0 -123 56.5 -180t154.5 -57q59 0 111.5 11t75.5 30v1136h114v-1188q-47 -33 -123.5 -57t-177.5 -24q-154 0 -239.5 83.5t-85.5 245.5zM244 1413l172 203q20 27 49 26q29 0 49 -26l172 -203l-35 -41l-186 170l-186 -170z" />
<glyph unicode="&#xfc;" horiz-adv-x="929" d="M152 309v940h114v-940q0 -123 56.5 -180t154.5 -57q59 0 111.5 11t75.5 30v1136h114v-1188q-47 -33 -123.5 -57t-177.5 -24q-154 0 -239.5 83.5t-85.5 245.5zM256 1470q0 29 20.5 49.5t49.5 20.5t49 -20.5t20 -49.5t-20.5 -49t-48.5 -20q-29 0 -49.5 20.5t-20.5 48.5z M535 1470q0 29 20 49.5t49 20.5t49.5 -20.5t20.5 -49.5t-20.5 -49t-49.5 -20t-49 20.5t-20 48.5z" />
<glyph unicode="&#xfd;" horiz-adv-x="884" d="M70 1249h123l210 -893q10 -39 16.5 -76.5t12.5 -68.5q6 -37 12 -70h5q2 33 10 70q4 31 12 68.5t18 76.5l211 893h115l-412 -1577h-118l116 332zM393 1393l137 276q39 31 74 31q18 0 33.5 -7t21.5 -24l-202 -276h-64z" />
<glyph unicode="&#xfe;" horiz-adv-x="921" d="M152 -328v2048h114v-499q23 16 70 32.5t106 16.5q92 0 161 -44t115 -126t69.5 -197t23.5 -258q0 -147 -24.5 -269t-74.5 -208t-127 -134t-179 -48q-80 0 -140 26v-340h-114zM266 102q23 -12 56.5 -21t83.5 -9q76 0 131 43t88.5 118.5t50 181t16.5 230.5t-15 224.5 t-48 169t-82 107.5t-119 38q-45 0 -89 -13.5t-73 -29.5v-1039z" />
<glyph unicode="&#xff;" horiz-adv-x="884" d="M70 1249h123l210 -893q10 -39 16.5 -76.5t12.5 -68.5q6 -37 12 -70h5q2 33 10 70q4 31 12 68.5t18 76.5l211 893h115l-412 -1577h-118l116 332zM238 1470q0 29 20.5 49.5t48.5 20.5q29 0 49.5 -20.5t20.5 -49.5t-20.5 -49t-49.5 -20t-49 20.5t-20 48.5zM516 1470 q0 29 20.5 49.5t49.5 20.5t49 -20.5t20 -49.5t-20.5 -49t-48.5 -20q-29 0 -49.5 20.5t-20.5 48.5z" />
<glyph unicode="&#x152;" horiz-adv-x="1417" d="M119 860q0 186 26.5 348t83 280t142.5 185.5t204 67.5q55 0 100.5 -7.5t65.5 -13.5h557v-90h-432v-704h396v-90h-396v-746h432v-90h-557q-18 -6 -65 -13t-101 -7q-119 0 -204.5 67.5t-142 185t-83 278.5t-26.5 349zM242 862q0 -164 19.5 -306t60 -249.5t103 -169 t150.5 -61.5q57 0 104.5 6t70.5 16v1526q-25 10 -70 17.5t-105 7.5q-88 0 -150.5 -61.5t-103 -169t-60 -251t-19.5 -305.5z" />
<glyph unicode="&#x153;" horiz-adv-x="1474" d="M111 625q0 143 18 262t60 204t107.5 132t162.5 47q119 0 184.5 -73t95.5 -196q41 139 117 204t174 65q86 0 148.5 -43t104.5 -120t61.5 -182.5t19.5 -232.5q0 -16 -1 -33.5t-1 -33.5l-578 -72q4 -104 23.5 -190.5t55.5 -149.5t85 -98t115 -35q88 0 144.5 19.5t92.5 47.5 l35 -86q-35 -29 -104.5 -55t-167.5 -26q-113 0 -195 68.5t-127 201.5q-31 -129 -95 -199.5t-187 -70.5q-96 0 -162 47t-108 132t-60 203.5t-18 262.5zM229 629q0 -115 10.5 -215.5t37 -177t70.5 -120.5t112 -44t111.5 44t70.5 120.5t37 177t10 215.5q0 113 -10 214t-37 177 t-71 120t-111 44q-68 0 -112 -44t-70.5 -120t-37 -177.5t-10.5 -213.5zM782 637l465 57q-6 236 -54 363t-167 127q-113 0 -178.5 -133t-65.5 -414z" />
<glyph unicode="&#x178;" horiz-adv-x="917" d="M37 1720h131l293 -841h4l293 841h123l-363 -954v-766h-119v766zM254 1942q0 29 20.5 49t49.5 20t49 -20t20 -49t-20.5 -49.5t-48.5 -20.5q-29 0 -49.5 20.5t-20.5 49.5zM532 1942q0 29 20.5 49t49.5 20t49.5 -20t20.5 -49t-20.5 -49.5t-49.5 -20.5t-49.5 20.5t-20.5 49.5 z" />
<glyph unicode="&#x2c6;" horiz-adv-x="450" d="M4 1413l172 203q20 27 49 26q29 0 49 -26l172 -203l-34 -41l-187 170l-186 -170z" />
<glyph unicode="&#x2dc;" horiz-adv-x="450" d="M-8 1454q16 35 52 62.5t85 27.5q31 0 54.5 -10t45 -23.5t43 -23.5t50.5 -10q35 0 58 18t36 39l43 -45q-16 -35 -52 -62.5t-85 -27.5q-31 0 -54.5 10t-45 23.5t-44 23.5t-49.5 10q-35 0 -58.5 -18t-35.5 -39z" />
<glyph unicode="&#x2000;" horiz-adv-x="1085" />
<glyph unicode="&#x2001;" horiz-adv-x="2171" />
<glyph unicode="&#x2002;" horiz-adv-x="1085" />
<glyph unicode="&#x2003;" horiz-adv-x="2171" />
<glyph unicode="&#x2004;" horiz-adv-x="723" />
<glyph unicode="&#x2005;" horiz-adv-x="542" />
<glyph unicode="&#x2006;" horiz-adv-x="361" />
<glyph unicode="&#x2007;" horiz-adv-x="361" />
<glyph unicode="&#x2008;" horiz-adv-x="271" />
<glyph unicode="&#x2009;" horiz-adv-x="434" />
<glyph unicode="&#x200a;" horiz-adv-x="120" />
<glyph unicode="&#x2010;" horiz-adv-x="696" d="M143 754v110h410v-110h-410z" />
<glyph unicode="&#x2011;" horiz-adv-x="696" d="M143 754v110h410v-110h-410z" />
<glyph unicode="&#x2012;" horiz-adv-x="696" d="M143 754v110h410v-110h-410z" />
<glyph unicode="&#x2013;" horiz-adv-x="716" d="M0 770v94h717v-94h-717z" />
<glyph unicode="&#x2014;" horiz-adv-x="1433" d="M164 770v94h1106v-94h-1106z" />
<glyph unicode="&#x2018;" horiz-adv-x="507" d="M135 1276l180 444h70l-115 -444q-10 -16 -29.5 -29.5t-45.5 -13.5q-29 0 -42.5 13.5t-17.5 29.5z" />
<glyph unicode="&#x2019;" horiz-adv-x="507" d="M123 1249l115 445q10 16 29.5 29.5t45.5 13.5q29 0 42.5 -13.5t17.5 -29.5l-180 -445h-70z" />
<glyph unicode="&#x201a;" horiz-adv-x="507" d="M123 -328l115 445q10 16 29.5 29.5t45.5 13.5q29 0 42.5 -13.5t17.5 -29.5l-180 -445h-70z" />
<glyph unicode="&#x201c;" horiz-adv-x="843" d="M135 1276l180 444h70l-115 -444q-10 -16 -29.5 -29.5t-45.5 -13.5q-29 0 -42.5 13.5t-17.5 29.5zM471 1276l180 444h70l-115 -444q-10 -16 -29.5 -29.5t-46.5 -13.5q-29 0 -42 13.5t-17 29.5z" />
<glyph unicode="&#x201d;" horiz-adv-x="843" d="M123 1249l115 445q10 16 29.5 29.5t45.5 13.5q29 0 42.5 -13.5t17.5 -29.5l-180 -445h-70zM459 1249l114 445q10 16 30 29.5t46 13.5q29 0 42.5 -13.5t17.5 -29.5l-181 -445h-69z" />
<glyph unicode="&#x201e;" horiz-adv-x="843" d="M123 -328l115 445q10 16 29.5 29.5t45.5 13.5q29 0 42.5 -13.5t17.5 -29.5l-180 -445h-70zM459 -328l114 445q10 16 30 29.5t46 13.5q29 0 42.5 -13.5t17.5 -29.5l-181 -445h-69z" />
<glyph unicode="&#x2022;" horiz-adv-x="614" d="M123 815q0 78 53 131t131 53t131.5 -53t53.5 -131t-53.5 -131t-131.5 -53t-131 53t-53 131z" />
<glyph unicode="&#x2026;" horiz-adv-x="1351" d="M139 74q0 35 25.5 60.5t60.5 25.5t60.5 -25.5t25.5 -60.5t-25.5 -60.5t-60.5 -25.5t-60.5 25.5t-25.5 60.5zM590 74q0 35 25.5 60.5t60.5 25.5t60.5 -25.5t25.5 -60.5t-25.5 -60.5t-60.5 -25.5t-60.5 25.5t-25.5 60.5zM1040 74q0 35 26 60.5t60 25.5q35 0 60.5 -25.5 t25.5 -60.5t-25.5 -60.5t-60.5 -25.5t-60.5 25.5t-25.5 60.5z" />
<glyph unicode="&#x202f;" horiz-adv-x="434" />
<glyph unicode="&#x2039;" horiz-adv-x="581" d="M152 778l213 451l65 -29l-164 -422l164 -422l-65 -28z" />
<glyph unicode="&#x203a;" horiz-adv-x="581" d="M152 356l163 422l-163 422l65 29l213 -451l-213 -450z" />
<glyph unicode="&#x205f;" horiz-adv-x="542" />
<glyph unicode="&#x20ac;" horiz-adv-x="1249" d="M106 623v98l207 -16q-8 88 -7 176t11 176l-211 -17v99l220 -17q20 143 67 258t118 195t164 123t210 43q96 0 161.5 -25.5t108.5 -56.5l-51 -78q-37 25 -93.5 44.5t-125.5 19.5q-188 0 -298 -137.5t-145 -385.5l531 17v-99l-539 17q-10 -88 -9 -176t7 -176l541 16v-98 l-535 16q31 -262 141.5 -409.5t305.5 -147.5q76 0 128 19.5t89 43.5l53 -84q-43 -31 -108.5 -56t-161.5 -25q-121 0 -217.5 46t-167 132t-116.5 207.5t-65 273.5z" />
<glyph unicode="&#x2122;" horiz-adv-x="1638" d="M70 1649v71h530v-71h-213v-932h-104v932h-213zM651 717l119 1003h121l178 -770l8 -46t8 -42q4 -23 7 -43h4q2 20 6 43q4 18 7 42t9 46l178 770h121l119 -1003h-106l-72 807q-2 20 -3 40.5t-1 37.5q-2 20 -2 36h-4q-2 -16 -7 -36q-4 -16 -7 -37t-7 -41l-190 -807h-95 l-186 807q-4 20 -7 40.5t-7 37.5q-4 20 -6 36h-5q-2 -16 -2 -36q-2 -16 -2 -37t-2 -41l-75 -807h-99z" />
<glyph unicode="&#xe000;" horiz-adv-x="1249" d="M0 0v1249h1249v-1249h-1249z" />
</font>
</defs>
</svg>
